<svg width="1633" height="1138" viewBox="0 0 1633 1138" fill="none" xmlns="http://www.w3.org/2000/svg">
<path fill-rule="evenodd" clip-rule="evenodd" d="M688.548 569.43C667.002 601.236 656.229 641.25 656.229 689.472H973.263C973.263 667.926 980.445 648.432 994.809 630.99C1009.17 613.548 1032.77 590.463 1065.6 561.735C1097.41 535.059 1123.57 510.948 1144.09 489.402C1164.61 466.83 1182.05 439.641 1196.42 407.835C1211.81 375.003 1219.5 337.041 1219.5 293.949C1219.5 200.583 1180.52 128.25 1102.54 76.95C1024.56 25.65 922.99 0 797.817 0C679.827 0 580.305 22.059 499.251 66.177C419.223 110.295 358.689 171.342 317.649 249.318L591.591 386.289C608.007 354.483 630.579 329.346 659.307 310.878C688.035 291.384 718.815 281.637 751.647 281.637C781.401 281.637 806.025 288.306 825.519 301.644C845.013 313.956 854.76 331.398 854.76 353.97C854.76 371.412 848.604 387.828 836.292 403.218C825.006 418.608 806.538 438.615 780.888 463.239C740.874 501.201 710.094 536.598 688.548 569.43ZM668.541 1063.45C706.503 1099.36 755.238 1117.31 814.746 1117.31C874.254 1117.31 922.99 1099.36 960.951 1063.45C998.913 1027.54 1017.89 983.934 1017.89 932.634C1017.89 880.308 998.913 837.216 960.951 803.358C922.99 768.474 874.254 751.032 814.746 751.032C755.238 751.032 706.503 768.474 668.541 803.358C630.579 837.216 611.598 880.308 611.598 932.634C611.598 983.934 630.579 1027.54 668.541 1063.45ZM231.799 810.427C225.239 785.942 225.265 764.159 231.878 745.078C238.351 725.476 249.164 703.315 264.316 678.596C273.99 662.603 280.645 649.932 284.282 640.582C288.439 631.093 289.332 621.92 286.959 613.064C283.888 601.603 276.566 594.073 264.992 590.473C253.279 586.353 239.869 586.317 224.761 590.365C208.091 594.832 193.788 603.969 181.854 617.776C169.78 631.061 161.738 646.896 157.73 665.279L0 633.002C10.2294 587.825 32.6602 548.593 67.2924 515.304C102.446 481.875 149.977 457.134 209.887 441.081C273.444 424.051 328.508 423.256 375.08 438.695C421.652 454.134 451.29 485.557 463.992 532.964C469.855 554.844 471.113 575.166 467.765 593.931C464.799 612.035 459.642 628.213 452.294 642.466C444.806 656.198 434.802 672 422.282 689.872C409.52 708.925 400.679 723.857 395.758 734.668C390.838 745.479 389.844 756.354 392.775 767.294L231.799 810.427ZM370.496 1006.1C340.281 1014.2 313.092 1011.71 288.931 998.64C264.77 985.572 249.2 966.014 242.221 939.966C235.102 913.397 238.876 888.934 253.545 866.578C268.075 843.701 290.447 828.214 320.663 820.118C350.878 812.022 377.996 814.247 402.018 826.795C425.9 838.822 441.4 858.119 448.519 884.688C455.499 910.736 451.794 935.459 437.404 958.857C423.014 982.256 400.712 998.003 370.496 1006.1ZM1286.91 894.212C1293.48 869.727 1304.39 850.876 1319.66 837.657C1335.06 823.918 1355.51 810.133 1380.99 796.302C1397.36 787.288 1409.46 779.642 1417.29 773.363C1425.63 767.224 1430.99 759.726 1433.37 750.87C1436.44 739.409 1433.86 729.227 1425.64 720.323C1417.55 710.898 1405.96 704.162 1390.85 700.114C1374.18 695.647 1357.23 696.408 1339.99 702.398C1322.89 707.867 1308.01 717.559 1295.34 731.476L1174.88 624.657C1206.33 590.648 1245.37 567.887 1292.01 556.374C1339.17 545.001 1392.7 547.34 1452.61 563.393C1516.17 580.423 1564.25 607.266 1596.87 643.923C1629.48 680.58 1639.43 722.611 1626.73 770.018C1620.87 791.899 1611.8 810.127 1599.52 824.704C1587.89 838.899 1575.34 850.331 1561.85 859.001C1548.5 867.149 1531.93 875.832 1512.16 885.049C1491.58 895.169 1476.45 903.68 1466.79 910.582C1457.12 917.484 1450.82 926.405 1447.89 937.345L1286.91 894.212ZM1309.19 1133.02C1278.98 1124.92 1256.68 1109.17 1242.29 1085.78C1227.9 1062.38 1224.19 1037.65 1231.17 1011.61C1238.29 985.038 1253.79 965.74 1277.67 953.713C1301.69 941.166 1328.81 938.94 1359.03 947.036C1389.24 955.132 1411.61 970.619 1426.14 993.496C1440.81 1015.85 1444.59 1040.32 1437.47 1066.88C1430.49 1092.93 1414.92 1112.49 1390.76 1125.56C1366.6 1138.63 1339.41 1141.11 1309.19 1133.02Z" fill="black" fill-opacity="0.025"/>
</svg>
