<svg width="26" height="26" viewBox="0 0 26 26" fill="none" xmlns="http://www.w3.org/2000/svg">
<path d="M24.25 12.25H1.75C1.33594 12.25 1 12.5859 1 13C1 13.4141 1.33594 13.75 1.75 13.75H24.25C24.6641 13.75 25 13.4141 25 13C25 12.5859 24.6641 12.25 24.25 12.25Z" fill="currentColor"/>
<path d="M1.75 7.75H24.25C24.6641 7.75 25 7.41406 25 7C25 6.58594 24.6641 6.25 24.25 6.25H1.75C1.33594 6.25 1 6.58594 1 7C1 7.41406 1.33594 7.75 1.75 7.75Z" fill="currentColor"/>
<path d="M24.25 18.25H1.75C1.33594 18.25 1 18.5859 1 19C1 19.4141 1.33594 19.75 1.75 19.75H24.25C24.6641 19.75 25 19.4141 25 19C25 18.5859 24.6641 18.25 24.25 18.25Z" fill="currentColor"/>
</svg>
