<svg width="251" height="46" viewBox="0 0 251 46" fill="none" xmlns="http://www.w3.org/2000/svg">
<path d="M25.12 19.208L10.576 24.2L25.12 29.192V37.352L0.640015 28.472V19.928L25.12 11.048V19.208Z" fill="currentColor"/>
<path d="M30.5016 7.39999H47.0616C50.8056 7.39999 54.1016 8.08799 56.9496 9.46399C59.8296 10.808 62.0536 12.744 63.6216 15.272C65.2216 17.8 66.0216 20.776 66.0216 24.2C66.0216 27.624 65.2216 30.6 63.6216 33.128C62.0536 35.656 59.8296 37.608 56.9496 38.984C54.1016 40.328 50.8056 41 47.0616 41H30.5016V7.39999ZM46.5816 32.168C49.0136 32.168 50.9496 31.48 52.3896 30.104C53.8616 28.696 54.5976 26.728 54.5976 24.2C54.5976 21.672 53.8616 19.72 52.3896 18.344C50.9496 16.936 49.0136 16.232 46.5816 16.232H41.8296V32.168H46.5816Z" fill="currentColor"/>
<path d="M97.7579 27.848C97.7579 28.008 97.7099 28.856 97.6139 30.392H79.3739C79.7579 31.384 80.3979 32.152 81.2939 32.696C82.1899 33.208 83.3099 33.464 84.6539 33.464C85.8059 33.464 86.7659 33.32 87.5339 33.032C88.3339 32.744 89.1979 32.248 90.1259 31.544L95.7899 37.256C93.2299 40.072 89.4059 41.48 84.3179 41.48C81.1499 41.48 78.3659 40.904 75.9659 39.752C73.5659 38.568 71.7099 36.936 70.3979 34.856C69.0859 32.776 68.4299 30.44 68.4299 27.848C68.4299 25.224 69.0699 22.888 70.3499 20.84C71.6619 18.76 73.4379 17.144 75.6779 15.992C77.9499 14.84 80.4939 14.264 83.3099 14.264C85.9659 14.264 88.3819 14.792 90.5579 15.848C92.7659 16.904 94.5099 18.456 95.7899 20.504C97.1019 22.552 97.7579 25 97.7579 27.848ZM83.4059 21.656C82.2859 21.656 81.3579 21.96 80.6219 22.568C79.8859 23.176 79.4059 24.04 79.1819 25.16H87.6299C87.4059 24.072 86.9259 23.224 86.1899 22.616C85.4539 21.976 84.5259 21.656 83.4059 21.656Z" fill="currentColor"/>
<path d="M129.945 14.744L119.385 41H108.153L97.5925 14.744H108.729L114.009 28.808L119.673 14.744H129.945Z" fill="currentColor"/>
<path d="M144.772 41.48C141.86 41.48 139.236 40.904 136.9 39.752C134.596 38.568 132.788 36.952 131.476 34.904C130.164 32.824 129.508 30.472 129.508 27.848C129.508 25.224 130.164 22.888 131.476 20.84C132.788 18.76 134.596 17.144 136.9 15.992C139.236 14.84 141.86 14.264 144.772 14.264C147.716 14.264 150.34 14.84 152.644 15.992C154.98 17.144 156.788 18.76 158.068 20.84C159.38 22.888 160.036 25.224 160.036 27.848C160.036 30.472 159.38 32.824 158.068 34.904C156.788 36.952 154.98 38.568 152.644 39.752C150.34 40.904 147.716 41.48 144.772 41.48ZM144.772 33.032C146.02 33.032 147.044 32.584 147.844 31.688C148.644 30.76 149.044 29.48 149.044 27.848C149.044 26.216 148.644 24.952 147.844 24.056C147.044 23.16 146.02 22.712 144.772 22.712C143.524 22.712 142.5 23.16 141.7 24.056C140.9 24.952 140.5 26.216 140.5 27.848C140.5 29.48 140.9 30.76 141.7 31.688C142.5 32.584 143.524 33.032 144.772 33.032Z" fill="currentColor"/>
<path d="M163.431 5.38399H174.279V41H163.431V5.38399Z" fill="currentColor"/>
<path d="M201.807 40.088C200.175 41.016 197.951 41.48 195.135 41.48C191.455 41.48 188.623 40.6 186.639 38.84C184.655 37.048 183.663 34.376 183.663 30.824V24.104H180.063V16.184H183.663V8.83999H194.511V16.184H199.887V24.104H194.511V30.728C194.511 31.528 194.719 32.152 195.135 32.6C195.551 33.048 196.095 33.272 196.767 33.272C197.695 33.272 198.511 33.032 199.215 32.552L201.807 40.088Z" fill="currentColor"/>
<path d="M216.061 0.583984H225.661L209.821 45.8H200.221L216.061 0.583984Z" fill="currentColor"/>
<path d="M250.401 19.928V28.472L225.921 37.352V29.192L240.465 24.2L225.921 19.208V11.048L250.401 19.928Z" fill="currentColor"/>
</svg>
