<svg width="277" height="58" viewBox="0 0 277 58" fill="none" xmlns="http://www.w3.org/2000/svg">
<path d="M55.2766 23.9729C55.4245 23.2793 55.1883 22.5616 54.6676 22.0787C47.5864 15.5301 39.5883 9.74503 30.8438 4.84543C30.2355 4.5054 29.4899 4.5054 28.8809 4.84543C20.1364 9.74503 12.1398 15.5301 5.05712 22.0787C4.53564 22.5616 4.30093 23.2793 4.44885 23.9729C6.62158 34.1091 9.67049 43.4923 13.5292 51.9291C13.8205 52.5663 14.4204 53.0131 15.1185 53.0966C24.9135 54.2717 34.8119 54.2717 44.6069 53.0966C45.3043 53.0131 45.9042 52.5663 46.1963 51.9291C50.055 43.4938 53.1024 34.1091 55.2766 23.9729ZM59.7262 22.1772C59.7262 22.3081 59.7126 22.4397 59.687 22.5699C58.4742 28.6325 56.9596 34.4499 55.1566 39.9806C53.3537 45.5114 51.2602 50.7563 48.8905 55.6777C48.7433 55.9809 48.5268 56.2389 48.2604 56.4315C47.997 56.6241 47.683 56.752 47.3487 56.7994C44.4477 57.1988 41.5369 57.499 38.6208 57.6998C35.7047 57.8999 32.7841 58 29.862 58C24.0208 58 18.178 57.5998 12.376 56.7994C12.0409 56.752 11.7293 56.6241 11.4644 56.4315C11.1995 56.2389 10.9814 55.9809 10.835 55.6777C8.46451 50.7563 6.37253 45.5114 4.56884 39.9806C2.76515 34.4499 1.25051 28.6325 0.0392449 22.5699C0.0120764 22.4397 0 22.3081 0 22.1772C0 21.6371 0.218858 21.1135 0.61733 20.7291C4.74317 16.7645 9.18523 13.0588 13.911 9.63595C18.6369 6.21308 23.6457 3.07306 28.9043 0.241479C29.2024 0.0804936 29.5329 -1.62919e-06 29.862 -1.62919e-06C30.1918 -1.62919e-06 30.5216 0.0804936 30.8219 0.241479C36.0798 3.07306 41.0871 6.21308 45.8129 9.63595C50.5387 13.0588 54.9808 16.7645 59.1074 20.7291C59.5059 21.1135 59.7262 21.6371 59.7262 22.1772Z" fill="white"/>
<path d="M54.6678 22.0791C55.1878 22.5613 55.4248 23.279 55.2769 23.9733C53.1026 34.1096 50.0552 43.4935 46.1958 51.9296C45.9045 52.566 45.3045 53.0136 44.6072 53.0971C34.8114 54.2722 24.913 54.2722 15.1188 53.0971C14.4207 53.0136 13.8207 52.566 13.5286 51.9296C9.67071 43.4927 6.6218 34.1096 4.44907 23.9733C4.30116 23.279 4.53511 22.5613 5.05735 22.0791C12.1393 15.5305 20.1366 9.74473 28.8811 4.84514C29.4902 4.5051 30.2358 4.5051 30.844 4.84514C39.5885 9.74473 47.5859 15.5305 54.6678 22.0791Z" fill="#C80000"/>
<path d="M39.8586 27.2703H33.8672V21.2972C33.8672 20.1868 32.9639 19.2863 31.85 19.2863H27.8751C26.7612 19.2863 25.8578 20.1868 25.8578 21.2972V27.2703H19.8664C18.7517 27.2703 17.8491 28.17 17.8491 29.2811V33.2426C17.8491 34.3538 18.7517 35.2535 19.8664 35.2535H25.8578V41.2266C25.8578 42.3369 26.7612 43.2374 27.8751 43.2374H31.85C32.9639 43.2374 33.8672 42.3369 33.8672 41.2266V35.2535H39.8586C40.9733 35.2535 41.8767 34.3538 41.8767 33.2426V29.2811C41.8767 28.17 40.9733 27.2703 39.8586 27.2703Z" fill="white"/>
<path d="M79.2592 34.189H88.8497L85.237 24.629C85.0393 24.1272 84.6785 23.8767 84.1525 23.8767C83.6273 23.8767 83.2552 24.1272 83.0364 24.629L79.2592 34.189ZM90.2285 37.8556H77.8147L76.008 42.4061H71.7388L79.5226 22.7634C79.8946 21.7154 80.4697 20.9789 81.2462 20.5539C82.0236 20.1281 83.0031 19.9152 84.1857 19.9152C85.3457 19.9152 86.3094 20.1281 87.0754 20.5539C87.8422 20.9789 88.4112 21.7154 88.784 22.7634L96.272 42.4061H91.9695L90.2285 37.8556Z" fill="white"/>
<path d="M116.798 20.3082C118.045 20.3082 118.669 20.9085 118.669 22.1091V42.4064H114.762V24.5638C114.762 24.302 114.63 24.1711 114.367 24.1711H103.858C103.573 24.1711 103.431 24.302 103.431 24.5638V42.4064H99.5555V22.1091C99.5555 20.9085 100.168 20.3082 101.395 20.3082H116.798Z" fill="white"/>
<path d="M139.13 20.3082V24.1711H132.66V42.4064H128.753V24.1711H122.283V20.3082H139.13Z" fill="white"/>
<path d="M160.478 20.3082V24.1711H149.377C148.195 24.1711 147.341 24.4224 146.815 24.9241C146.29 25.4267 146.027 26.103 146.027 26.9538L146.03 29.5725H149.41H160.313V33.0758H149.311H145.929V35.7607C145.929 36.6334 146.202 37.3149 146.75 37.8062C147.297 38.2974 148.14 38.5427 149.279 38.5427H160.51V42.4064H149.279C147.965 42.4064 146.843 42.2537 145.912 41.9475C144.981 41.6421 144.215 41.2223 143.613 40.6874C143.01 40.1525 142.573 39.5146 142.299 38.7721C142.026 38.0304 141.889 37.2337 141.889 36.3821C141.889 35.1168 141.954 28.7984 141.954 26.3317C141.954 25.459 142.097 24.6511 142.381 23.9093C142.665 23.1676 143.109 22.5289 143.712 21.994C144.313 21.4599 145.08 21.0446 146.011 20.7497C146.941 20.4556 148.063 20.3082 149.377 20.3082H160.478Z" fill="white"/>
<path d="M169.41 20.3082V29.671H171.545C172.486 29.671 173.258 29.6439 173.86 29.589C174.462 29.5349 174.96 29.4092 175.355 29.2129C175.749 29.0165 176.082 28.7382 176.356 28.3779C176.63 28.0183 176.92 27.5323 177.227 26.9214L180.61 20.3082H184.781L181.3 27.1832C180.795 28.165 180.259 28.9834 179.69 29.6379C179.12 30.2932 178.377 30.8168 177.457 31.2094C177.982 31.3411 178.442 31.5209 178.836 31.7496C179.23 31.979 179.597 32.2634 179.937 32.6012C180.275 32.9397 180.598 33.3437 180.905 33.8123C181.212 34.2818 181.53 34.8332 181.857 35.4658L185.437 42.4064H181.103L177.72 35.8585C177.413 35.2695 177.117 34.8001 176.833 34.451C176.548 34.102 176.187 33.8289 175.749 33.6325C175.31 33.4362 174.764 33.3106 174.107 33.2556C173.451 33.2015 172.597 33.1744 171.545 33.1744H169.41V42.4064H165.535V20.3082H169.41Z" fill="white"/>
<path d="M194.896 34.189H204.485L200.873 24.629C200.676 24.1272 200.315 23.8767 199.789 23.8767C199.263 23.8767 198.891 24.1272 198.672 24.629L194.896 34.189ZM205.865 37.8556H193.45L191.644 42.4061H187.374L195.158 22.7634C195.53 21.7154 196.105 20.9789 196.883 20.5539C197.659 20.1281 198.64 19.9152 199.821 19.9152C200.981 19.9152 201.945 20.1281 202.712 20.5539C203.478 20.9789 204.047 21.7154 204.42 22.7634L211.908 42.4061H207.605L205.865 37.8556Z" fill="white"/>
<path d="M224.551 20.3082C225.559 20.3082 226.396 20.4014 227.064 20.5865C227.732 20.7723 228.263 21.077 228.657 21.5028C229.051 21.9286 229.325 22.474 229.478 23.1397C229.63 23.8055 229.708 24.6187 229.708 25.5786V42.4064H225.832V25.8404C225.832 25.2514 225.712 24.8256 225.471 24.5638C225.23 24.302 224.815 24.1711 224.223 24.1711H222.219V20.3082H224.551Z" fill="white"/>
<path d="M238.148 32.2902C237.885 32.5957 237.754 32.9342 237.754 33.3051C237.754 33.6541 237.869 33.9219 238.099 34.107C238.329 34.2928 238.706 34.3853 239.232 34.3853H248.92V25.2519C248.92 24.5312 248.592 24.1716 247.935 24.1716H246.195C245.69 24.1716 245.307 24.2363 245.045 24.3672C244.782 24.4989 244.497 24.7494 244.191 25.1202L238.148 32.2902ZM241.202 22.7957C241.553 22.382 241.892 22.0216 242.22 21.7154C242.549 21.4108 242.91 21.1542 243.304 20.9466C243.698 20.7397 244.141 20.5817 244.635 20.4719C245.127 20.3628 245.702 20.3079 246.358 20.3079H248.822C250.267 20.3079 251.295 20.6517 251.908 21.3393C252.522 22.0269 252.828 23.0252 252.828 24.3349V42.4061H248.92V37.8225H238.542C236.658 37.8225 235.334 37.4952 234.569 36.8408C233.801 36.1855 233.419 35.2369 233.419 33.9926C233.419 33.1629 233.544 32.4866 233.796 31.9622C234.047 31.4386 234.382 30.9263 234.798 30.4238L241.202 22.7957Z" fill="white"/>
<path d="M260.973 27.3795C260.973 28.3619 261.241 29.0819 261.777 29.54C262.314 29.9982 263.086 30.2276 264.093 30.2276H273.092C272.982 28.1107 272.463 26.5723 271.532 25.6116C270.601 24.6517 269.205 24.171 267.344 24.171H264.257C263.14 24.171 262.314 24.4659 261.777 25.0549C261.241 25.644 260.973 26.4196 260.973 27.3795ZM268.264 20.308C269.556 20.308 270.738 20.5104 271.811 20.9136C272.883 21.3176 273.803 21.9503 274.57 22.8124C275.336 23.6752 275.933 24.7826 276.36 26.1352C276.786 27.4893 277 29.115 277 31.0137C277 34.8759 276.135 37.7406 274.405 39.6063C272.676 41.4727 270.202 42.4062 266.983 42.4062H259.692V38.5425H266.983C268.757 38.5425 270.136 38.1393 271.121 37.3314C272.107 36.5242 272.731 35.1926 272.993 33.3375H263.699C261.444 33.3375 259.796 32.8523 258.756 31.8804C257.716 30.9099 257.196 29.3986 257.196 27.3471C257.196 26.3646 257.328 25.4431 257.59 24.5802C257.853 23.7181 258.275 22.9711 258.854 22.3377C259.435 21.705 260.19 21.2085 261.121 20.8482C262.051 20.4878 263.195 20.308 264.553 20.308H268.264Z" fill="white"/>
<path d="M74.4074 49.812C75.482 49.812 75.9318 50.3123 76.0367 51.0059C76.0548 51.1383 76.0277 51.1992 75.9047 51.2346L75.6933 51.2963C75.5613 51.3489 75.5175 51.3136 75.4911 51.1902C75.4028 50.6455 75.0851 50.3386 74.3281 50.3386C73.4557 50.3386 72.9365 50.796 72.8037 51.5332L72.5667 52.8678C72.4339 53.6058 72.8037 54.0616 73.6678 54.0616C74.3983 54.0616 74.8564 53.7547 75.147 53.1574C75.2088 53.0348 75.2617 53.0175 75.3854 53.0521L75.6141 53.1311C75.7198 53.1755 75.7462 53.2281 75.676 53.3507C75.2617 54.1587 74.6277 54.58 73.5787 54.58C72.3192 54.58 71.7909 53.8864 71.9848 52.8061L72.2135 51.5069C72.4075 50.4349 73.1123 49.812 74.4074 49.812Z" fill="white"/>
<path d="M82.4001 50.3212C81.5458 50.3212 80.9557 50.8041 80.8055 51.6121L80.7353 51.9544C81.2107 52.0604 81.7134 52.1041 82.1352 52.1041C82.9193 52.1041 83.4136 51.8408 83.5457 51.3052C83.7042 50.6635 83.2635 50.3212 82.4001 50.3212ZM82.4884 49.8119C83.677 49.8119 84.3381 50.4092 84.1178 51.3744C83.9419 52.1913 83.2197 52.569 82.0477 52.569C81.616 52.569 81.0877 52.5163 80.6553 52.4291L80.5768 52.8676C80.444 53.6312 80.8138 54.0705 81.6869 54.0705C82.4092 54.0705 82.8582 53.799 83.1842 53.3769C83.2808 53.2716 83.3427 53.2453 83.4484 53.3153L83.6159 53.4213C83.7125 53.4823 83.7125 53.562 83.6242 53.6756C83.2197 54.2112 82.6114 54.5798 81.5986 54.5798C80.2772 54.5798 79.8191 53.8072 80.0131 52.745L80.2244 51.6031C80.4266 50.4619 81.2462 49.8119 82.4884 49.8119Z" fill="white"/>
<path d="M93.2826 49.8119C94.401 49.8119 94.7889 50.4439 94.5949 51.5241L94.1112 54.2993C94.084 54.4219 94.0403 54.4573 93.9172 54.4573H93.6441C93.5203 54.4573 93.4939 54.4219 93.512 54.2993L94.0138 51.5068C94.1467 50.7252 93.8727 50.3566 93.115 50.3566C92.5249 50.3566 92.0585 50.5672 91.8645 50.6545C91.9438 50.8742 91.9521 51.1465 91.8909 51.4805L91.3974 54.2993C91.3717 54.4219 91.3272 54.4573 91.2034 54.4573H90.931C90.808 54.4573 90.7815 54.4219 90.808 54.2993L91.3008 51.5068C91.4419 50.6989 91.1249 50.3566 90.3755 50.3566C89.9884 50.3566 89.7061 50.4183 89.4246 50.5319C89.2835 50.5936 89.2571 50.6726 89.2307 50.7688L88.6133 54.2993C88.5869 54.4219 88.5439 54.4573 88.4285 54.4573H88.147C88.0322 54.4573 87.9968 54.4219 88.0232 54.2993L88.676 50.5936C88.7288 50.3212 88.8164 50.2069 89.0986 50.0925C89.4329 49.9526 89.891 49.8119 90.5431 49.8119C91.054 49.8119 91.4147 49.9436 91.6268 50.1986C91.829 50.1099 92.4283 49.8119 93.2826 49.8119Z" fill="white"/>
<path d="M100.591 54.0531C101.446 54.0531 101.921 53.6845 102.062 52.9112C102.185 52.1912 101.824 51.8053 101.031 51.8053C100.547 51.8053 100.124 51.9106 99.7272 52.0513L99.4374 53.6491C99.4193 53.7898 99.4284 53.8161 99.5688 53.8861C99.8072 53.9749 100.133 54.0531 100.591 54.0531ZM101.155 51.296C102.283 51.296 102.829 51.9106 102.644 52.9555C102.45 54.0621 101.754 54.5797 100.574 54.5797C99.8593 54.5797 99.3929 54.4661 99.0759 54.3345C98.8118 54.2201 98.7582 54.1238 98.8118 53.8425L99.4805 50.1014C99.5069 49.9788 99.5514 49.9434 99.6744 49.9434H99.9302C100.053 49.9434 100.089 49.9788 100.062 50.1014L99.8163 51.533C100.238 51.3923 100.67 51.296 101.155 51.296Z" fill="white"/>
<path d="M114.921 49.812C115.995 49.812 116.445 50.3123 116.55 51.0059C116.568 51.1383 116.541 51.1992 116.418 51.2346L116.207 51.2963C116.075 51.3489 116.031 51.3136 116.004 51.1902C115.915 50.6455 115.598 50.3386 114.841 50.3386C113.969 50.3386 113.45 50.796 113.317 51.5332L113.08 52.8678C112.947 53.6058 113.317 54.0616 114.181 54.0616C114.912 54.0616 115.37 53.7547 115.66 53.1574C115.722 53.0348 115.775 53.0175 115.899 53.0521L116.127 53.1311C116.233 53.1755 116.259 53.2281 116.189 53.3507C115.775 54.1587 115.141 54.58 114.092 54.58C112.832 54.58 112.304 53.8864 112.498 52.8061L112.727 51.5069C112.921 50.4349 113.626 49.812 114.921 49.812Z" fill="white"/>
<path d="M122.913 50.3475C122.094 50.3475 121.504 50.7515 121.381 51.4278L121.107 52.973C120.984 53.6402 121.443 54.0442 122.252 54.0442C123.089 54.0442 123.671 53.6402 123.794 52.973L124.067 51.4278C124.19 50.7515 123.742 50.3475 122.913 50.3475ZM122.993 49.8119C124.208 49.8119 124.834 50.4528 124.658 51.4541L124.384 52.9993C124.208 53.9998 123.398 54.5798 122.182 54.5798C120.984 54.5798 120.341 53.9569 120.517 52.9557L120.791 51.4097C120.966 50.4092 121.795 49.8119 122.993 49.8119Z" fill="white"/>
<path d="M129.991 50.1015L129.506 52.8503C129.375 53.6402 129.683 54.0442 130.529 54.0442C131.145 54.0442 131.497 53.9042 131.876 53.8245L132.537 50.1015C132.555 49.9788 132.607 49.9435 132.722 49.9435H132.995C133.11 49.9435 133.154 49.9788 133.127 50.1015L132.475 53.7989C132.969 53.7463 133.198 53.9832 133.092 54.5708L132.933 55.5194C132.907 55.6428 132.872 55.6774 132.758 55.6774H132.502C132.379 55.6774 132.334 55.6428 132.361 55.5194L132.52 54.6415C132.555 54.4218 132.475 54.2465 132.158 54.2992C131.682 54.3865 131.198 54.5798 130.37 54.5798C129.163 54.5798 128.731 53.9042 128.925 52.824L129.401 50.1015C129.427 49.9788 129.472 49.9435 129.595 49.9435H129.868C129.982 49.9435 130.017 49.9788 129.991 50.1015Z" fill="white"/>
<path d="M141.711 50.1015L141.059 53.8072C141.006 54.0796 140.927 54.1759 140.636 54.2902C140.275 54.4309 139.746 54.5798 138.945 54.5798C137.738 54.5798 137.315 53.9043 137.509 52.824L137.985 50.1015C138.011 49.9789 138.055 49.9435 138.178 49.9435H138.452C138.566 49.9435 138.601 49.9789 138.575 50.1015L138.09 52.8421C137.958 53.6312 138.258 54.0442 139.112 54.0442C139.615 54.0442 140.011 53.9569 140.301 53.8509C140.442 53.7899 140.486 53.72 140.504 53.6056L141.121 50.1015C141.138 49.9789 141.191 49.9435 141.306 49.9435H141.578C141.694 49.9435 141.738 49.9789 141.711 50.1015Z" fill="white"/>
<path d="M148.11 50.3563C147.193 50.3563 146.717 50.6896 146.559 51.5592L146.338 52.7801C146.198 53.5527 146.507 54.044 147.335 54.044C147.934 54.044 148.427 53.9213 148.692 53.8333L149.237 50.7603C149.255 50.6196 149.237 50.585 149.097 50.5233C148.867 50.4345 148.55 50.3563 148.11 50.3563ZM148.163 49.8116C148.823 49.8116 149.325 49.9433 149.607 50.0749C149.872 50.1983 149.916 50.2683 149.863 50.5587L149.237 54.1147C149.211 54.2373 149.15 54.2817 149.017 54.3253C148.577 54.4479 147.996 54.5796 147.203 54.5796C145.995 54.5796 145.564 53.816 145.758 52.7358L145.978 51.4802C146.18 50.3119 146.877 49.8116 148.163 49.8116Z" fill="white"/>
<path d="M158.173 50.1014L157.442 54.2991C157.416 54.4218 157.364 54.4571 157.248 54.4571H156.976C156.852 54.4571 156.825 54.4218 156.843 54.2991L157.513 50.4964H155.672L155.327 51.9453C154.799 54.1758 154.289 54.2818 153.601 54.5707C153.504 54.6061 153.451 54.5797 153.426 54.4925L153.337 54.2202C153.311 54.1321 153.328 54.0975 153.417 54.0532C153.787 53.8779 154.289 53.8779 154.755 51.8934L155.178 50.1014C155.213 49.9788 155.258 49.9434 155.372 49.9434H158.05C158.164 49.9434 158.2 49.9788 158.173 50.1014Z" fill="white"/>
<path d="M163.956 54.0531C164.811 54.0531 165.286 53.6845 165.427 52.9112C165.55 52.1912 165.19 51.8053 164.397 51.8053C163.912 51.8053 163.489 51.9106 163.092 52.0513L162.803 53.6491C162.785 53.7898 162.794 53.8161 162.934 53.8861C163.172 53.9749 163.498 54.0531 163.956 54.0531ZM164.52 51.296C165.648 51.296 166.194 51.9106 166.009 52.9555C165.815 54.0621 165.119 54.5797 163.939 54.5797C163.225 54.5797 162.758 54.4661 162.441 54.3345C162.177 54.2201 162.123 54.1238 162.177 53.8425L162.846 50.1014C162.872 49.9788 162.917 49.9434 163.04 49.9434H163.295C163.418 49.9434 163.454 49.9788 163.428 50.1014L163.182 51.533C163.603 51.3923 164.035 51.296 164.52 51.296Z" fill="white"/>
<path d="M174.601 50.1015L173.87 54.2992C173.843 54.4218 173.8 54.4572 173.676 54.4572H173.403C173.28 54.4572 173.254 54.4218 173.271 54.2992L173.606 52.411H171.051L170.725 54.2992C170.699 54.4218 170.655 54.4572 170.531 54.4572H170.259C170.144 54.4572 170.108 54.4218 170.126 54.2992L170.866 50.1015C170.893 49.9788 170.937 49.9435 171.06 49.9435H171.333C171.447 49.9435 171.483 49.9788 171.456 50.1015L171.148 51.8671H173.703L174.012 50.1015C174.037 49.9788 174.082 49.9435 174.206 49.9435H174.478C174.592 49.9435 174.627 49.9788 174.601 50.1015Z" fill="white"/>
<path d="M184.234 50.1015L183.494 54.2992C183.467 54.4219 183.423 54.4572 183.308 54.4572H183.026C182.912 54.4572 182.877 54.4219 182.903 54.2992L183.643 50.1015C183.661 49.9789 183.714 49.9435 183.828 49.9435H184.102C184.225 49.9435 184.26 49.9789 184.234 50.1015ZM180.383 54.0532C181.238 54.0532 181.714 53.6846 181.856 52.9113C181.979 52.1913 181.617 51.8054 180.824 51.8054C180.34 51.8054 179.917 51.9107 179.521 52.0514L179.23 53.6493C179.213 53.7899 179.221 53.8155 179.362 53.8862C179.6 53.9742 179.926 54.0532 180.383 54.0532ZM180.948 51.2961C182.076 51.2961 182.622 51.9107 182.437 52.9557C182.243 54.0623 181.546 54.5798 180.367 54.5798C179.653 54.5798 179.186 54.4662 178.869 54.3346C178.604 54.2202 178.552 54.124 178.604 53.8426L179.274 50.1015C179.3 49.9789 179.344 49.9435 179.468 49.9435H179.723C179.847 49.9435 179.881 49.9789 179.855 50.1015L179.609 51.5331C180.032 51.3924 180.463 51.2961 180.948 51.2961Z" fill="white"/>
<path d="M192.351 50.1191L190.475 52.139L191.708 54.2815C191.769 54.3958 191.725 54.4575 191.557 54.4575H191.337C191.17 54.4575 191.143 54.4395 191.082 54.3259L190.069 52.5603L188.457 54.3259C188.36 54.4395 188.308 54.4575 188.149 54.4575H187.858C187.681 54.4575 187.673 54.3958 187.778 54.2815L189.752 52.139L188.58 50.1191C188.536 50.0138 188.562 49.9438 188.739 49.9438H188.95C189.118 49.9438 189.153 49.9611 189.206 50.0747L190.166 51.7087L191.681 50.0747C191.787 49.9611 191.813 49.9438 191.981 49.9438H192.28C192.439 49.9438 192.457 50.0055 192.351 50.1191Z" fill="white"/>
<path d="M204.082 50.3563C203.166 50.3563 202.69 50.6896 202.531 51.5592L202.312 52.7801C202.171 53.5527 202.479 54.044 203.307 54.044C203.906 54.044 204.399 53.9213 204.664 53.8333L205.21 50.7603C205.228 50.6196 205.21 50.585 205.069 50.5233C204.84 50.4345 204.523 50.3563 204.082 50.3563ZM204.135 49.8116C204.795 49.8116 205.298 49.9433 205.579 50.0749C205.844 50.1983 205.888 50.2683 205.835 50.5587L205.21 54.1147C205.183 54.2373 205.122 54.2817 204.989 54.3253C204.549 54.4479 203.968 54.5796 203.175 54.5796C201.968 54.5796 201.537 53.816 201.731 52.7358L201.95 51.4802C202.152 50.3119 202.849 49.8116 204.135 49.8116Z" fill="white"/>
<path d="M212.561 49.8119C213.767 49.8119 214.199 50.4965 214.005 51.5768L213.53 54.2993C213.503 54.4219 213.45 54.4573 213.336 54.4573H213.062C212.939 54.4573 212.913 54.4219 212.93 54.2993L213.415 51.5512C213.555 50.7606 213.247 50.3566 212.393 50.3566C211.89 50.3566 211.476 50.4529 211.195 50.5492C211.063 50.6026 211.036 50.6726 211.01 50.7688L210.393 54.2993C210.367 54.4219 210.323 54.4573 210.208 54.4573H209.927C209.811 54.4573 209.777 54.4219 209.803 54.2993L210.455 50.5936C210.508 50.3212 210.587 50.225 210.878 50.1099C211.239 49.9699 211.767 49.8119 212.561 49.8119Z" fill="white"/>
<path d="M223.408 49.8119C224.526 49.8119 224.914 50.4439 224.72 51.5241L224.236 54.2993C224.209 54.4219 224.165 54.4573 224.042 54.4573H223.769C223.645 54.4573 223.619 54.4219 223.637 54.2993L224.139 51.5068C224.272 50.7252 223.998 50.3566 223.24 50.3566C222.65 50.3566 222.184 50.5672 221.99 50.6545C222.069 50.8742 222.077 51.1465 222.016 51.4805L221.523 54.2993C221.497 54.4219 221.452 54.4573 221.329 54.4573H221.056C220.933 54.4573 220.907 54.4219 220.933 54.2993L221.426 51.5068C221.567 50.6989 221.25 50.3566 220.501 50.3566C220.114 50.3566 219.831 50.4183 219.55 50.5319C219.409 50.5936 219.382 50.6726 219.356 50.7688L218.738 54.2993C218.712 54.4219 218.669 54.4573 218.554 54.4573H218.272C218.157 54.4573 218.122 54.4219 218.148 54.2993L218.801 50.5936C218.854 50.3212 218.941 50.2069 219.224 50.0925C219.558 49.9526 220.016 49.8119 220.668 49.8119C221.179 49.8119 221.54 49.9436 221.752 50.1986C221.954 50.1099 222.553 49.8119 223.408 49.8119Z" fill="white"/>
<path d="M231.377 50.3212C230.522 50.3212 229.932 50.8041 229.782 51.6121L229.712 51.9544C230.187 52.0604 230.69 52.1041 231.112 52.1041C231.896 52.1041 232.39 51.8408 232.522 51.3052C232.681 50.6635 232.24 50.3212 231.377 50.3212ZM231.465 49.8119C232.654 49.8119 233.315 50.4092 233.094 51.3744C232.918 52.1913 232.196 52.569 231.024 52.569C230.593 52.569 230.064 52.5163 229.632 52.4291L229.553 52.8676C229.421 53.6312 229.79 54.0705 230.664 54.0705C231.386 54.0705 231.835 53.799 232.161 53.3769C232.257 53.2716 232.319 53.2453 232.425 53.3153L232.592 53.4213C232.689 53.4823 232.689 53.562 232.601 53.6756C232.196 54.2112 231.588 54.5798 230.575 54.5798C229.254 54.5798 228.796 53.8072 228.99 52.745L229.201 51.6031C229.403 50.4619 230.223 49.8119 231.465 49.8119Z" fill="white"/>
<path d="M240.647 54.4572H240.392C240.216 54.4572 240.189 54.4308 240.155 54.3165L239.722 52.9466C239.607 52.578 239.405 52.411 238.956 52.411H237.943L237.617 54.2901C237.59 54.4218 237.546 54.4572 237.414 54.4572H237.158C237.026 54.4572 237 54.4218 237.017 54.2901L237.758 50.1015C237.784 49.9788 237.829 49.9435 237.96 49.9435H238.216C238.339 49.9435 238.374 49.9788 238.348 50.1015L238.04 51.8671H238.973H239.061L240.797 50.0661C240.912 49.9435 240.955 49.9435 241.132 49.9435H241.379C241.545 49.9435 241.545 50.0315 241.422 50.1458L239.607 52.016C239.952 52.095 240.128 52.3139 240.259 52.6916L240.779 54.2728C240.823 54.4045 240.797 54.4572 240.647 54.4572Z" fill="white"/>
</svg>
