<svg width="255" height="56" viewBox="0 0 255 56" fill="none" xmlns="http://www.w3.org/2000/svg">
<path fill-rule="evenodd" clip-rule="evenodd" d="M33.7516 6.63668C33.7516 14.0758 33.8371 13.4195 32.7925 13.9932C31.648 14.6228 30.8772 15.038 29.9866 15.5072C29.5163 15.7544 29.0796 15.9955 29.0173 16.0426C28.9543 16.0898 28.3896 16.3991 27.7619 16.7303C27.1348 17.0616 26.236 17.5478 25.7657 17.8114C25.2948 18.0743 24.3967 18.5613 23.7689 18.8932C23.1412 19.2251 22.5765 19.5331 22.5142 19.5775C22.4512 19.6219 21.8865 19.9299 21.2587 20.2618C20.6317 20.5937 19.7329 21.0792 19.2626 21.3415C18.7917 21.6037 18.0476 22.0121 17.6081 22.2491C17.1686 22.486 16.2445 22.988 15.5545 23.3643C14.3702 24.0103 14.0314 24.1947 12.3597 25.0996C11.9832 25.3038 11.4185 25.6104 11.105 25.7819C10.7915 25.9526 10.2007 26.2736 9.79271 26.4955C9.38541 26.7168 8.65501 27.1204 8.17104 27.3922C7.68707 27.664 7.26813 27.8866 7.24007 27.8866C7.212 27.8866 6.83824 28.0833 6.40904 28.3244C5.66837 28.7396 4.76409 29.2306 3.23278 30.0488C2.20871 30.5965 2.26278 30.4865 2.26278 32.006V33.3664L3.20403 32.8611C3.72222 32.5831 4.37664 32.228 4.65867 32.0709C4.94139 31.9145 5.50613 31.6072 5.91411 31.3873C6.32142 31.1681 7.63094 30.4531 8.82341 29.7995C10.0152 29.1453 11.5041 28.3374 12.1318 28.0041C12.7595 27.6715 13.3242 27.3615 13.3865 27.3164C13.4495 27.2713 13.9451 26.9988 14.488 26.7113C15.0308 26.4231 15.6469 26.0919 15.857 25.9744C16.0672 25.8577 17.1118 25.2854 18.1783 24.7035C19.2455 24.1217 20.657 23.3506 21.3162 22.9907C21.9748 22.6308 22.9249 22.1173 23.4267 21.8496C23.9284 21.5825 24.6821 21.1666 25.1011 20.9262C25.52 20.6852 25.8931 20.4878 25.93 20.4878C25.9677 20.4878 26.1895 20.369 26.4236 20.2228C26.6577 20.0774 27.3114 19.7106 27.8762 19.4088C28.4409 19.1069 29.339 18.6193 29.873 18.3263C30.4062 18.0327 31.253 17.5724 31.7555 17.3033C32.2572 17.0336 32.8733 16.6989 33.1245 16.5589C33.3751 16.4189 33.9398 16.1109 34.3793 15.874C35.8394 15.0859 36.4254 14.7656 37.2886 14.2834C37.7595 14.0205 38.6063 13.5588 39.1711 13.2577C39.7358 12.9565 40.7811 12.3856 41.4944 11.9888C42.2077 11.5927 42.8108 11.2683 42.8354 11.2683C42.86 11.2683 43.509 10.918 44.277 10.4898C45.6516 9.72419 46.7181 9.14302 48.0701 8.42527C49.0654 7.896 49.064 7.89873 48.7704 7.17824C48.4938 6.5001 48.5807 6.5759 45.4435 4.25805C44.5036 3.5642 42.8231 2.32195 41.7093 1.49834L39.6845 0H36.7184H33.7516V6.63668ZM38.0183 2.57054C38.056 2.66956 38.0874 4.02176 38.0874 5.5761V8.40137L39.0841 9.0119C39.6324 9.3479 40.0979 9.70576 40.1171 9.80819C40.1582 10.0213 36.6985 11.9512 36.2762 11.9512H36.0338V7.24654C36.0338 4.65961 36.0681 2.50839 36.1098 2.46605C36.283 2.29395 37.9464 2.38478 38.0183 2.57054ZM42.9449 5.40605C44.1634 6.31366 45.1608 7.09902 45.1608 7.15024C45.1608 7.26361 43.0839 8.42322 42.8813 8.42322C42.7279 8.42322 40.8947 7.35717 40.5689 7.07854C40.1986 6.76234 40.3047 3.7561 40.6859 3.7561C40.7099 3.7561 41.7264 4.49912 42.9449 5.40605ZM49.6555 11.3106C49.3981 11.4575 48.7306 11.8228 48.1721 12.122C47.6142 12.4218 46.5415 12.9995 45.7885 13.4059C45.0355 13.8129 44.0854 14.3244 43.6774 14.5422C43.2694 14.7601 42.7307 15.0538 42.4794 15.1938C42.2289 15.3338 41.5615 15.6943 40.9967 15.9948C40.432 16.2953 39.6188 16.7379 39.1895 16.9782C38.7603 17.218 38.3927 17.4146 38.3722 17.4146C38.3524 17.4146 37.9848 17.6113 37.5556 17.8517C37.1263 18.0921 36.3131 18.5353 35.7484 18.8365C35.1836 19.1383 34.1055 19.7263 33.3525 20.1443C32.5995 20.5622 31.496 21.1632 30.8998 21.4801C30.3035 21.797 29.4561 22.2498 29.0173 22.486C28.5778 22.723 27.8844 23.0945 27.4771 23.3117C27.0691 23.5296 26.3503 23.9236 25.8794 24.1879C25.4091 24.4515 24.5103 24.9405 23.8833 25.2731C23.2555 25.6057 22.5505 25.997 22.3163 26.1424C22.0822 26.2879 21.8632 26.4067 21.8296 26.4067C21.7954 26.4067 21.5764 26.5262 21.3423 26.6717C21.1081 26.8172 20.4544 27.1839 19.8897 27.4858C19.3249 27.7883 18.4268 28.2752 17.8935 28.5689C17.3596 28.8619 16.5128 29.3228 16.0111 29.5939C15.5086 29.8644 14.5147 30.4107 13.8014 30.8075C13.0881 31.2043 12.4836 31.5287 12.4569 31.5287C12.4309 31.5287 12.0127 31.7513 11.5287 32.0231C10.608 32.5401 9.85501 32.9533 8.42363 33.7243C7.95336 33.9777 6.95188 34.5267 6.19888 34.9447C5.44589 35.3619 4.41908 35.9233 3.91731 36.1917C3.41555 36.4601 2.8378 36.7804 2.6338 36.9019L2.26278 37.1246V38.4891V39.8542L2.86176 39.5196C3.1917 39.3352 3.79478 39.0047 4.20277 38.7848C4.99204 38.3593 5.44794 38.11 7.16887 37.1635C7.76511 36.8357 8.66322 36.3474 9.16567 36.079C9.66744 35.8113 10.4636 35.3763 10.9338 35.1134C11.4048 34.8504 12.2516 34.3888 12.8163 34.0883C13.3811 33.7871 14.2285 33.3268 14.6988 33.0646C15.1698 32.8023 15.9652 32.3673 16.467 32.0976C16.9694 31.8285 17.7792 31.3832 18.2673 31.1087C20.0006 30.1348 20.045 30.186 19.0169 31.9651C18.6308 32.633 18.1872 33.4095 18.0318 33.6915C17.8764 33.9729 17.7087 34.2549 17.6601 34.3171C17.6122 34.3799 17.1905 35.097 16.7237 35.911C16.2568 36.7244 15.3984 38.2098 14.8165 39.2116C14.234 40.2135 13.6275 41.2631 13.4687 41.5452C13.3092 41.8265 13.0593 42.2479 12.9122 42.4815C12.7657 42.715 12.6452 42.9267 12.6452 42.9513C12.6452 42.9766 12.2858 43.6049 11.847 44.3479C11.4082 45.0916 11.0488 45.7377 11.0482 45.7848C11.0475 45.9869 14.1998 45.879 14.3778 45.6707C14.5372 45.4843 15.6722 43.5468 18.2817 39.006C18.8868 37.9537 19.7466 36.4683 20.1936 35.7048C20.6399 34.9419 21.0938 34.1634 21.2019 33.9756C23.5588 29.8815 24.4685 28.3141 24.7143 27.9242C24.9573 27.539 25.2722 27.3055 26.3791 26.6908C28.0733 25.7498 28.2006 25.7327 28.5778 26.4067C28.7353 26.6888 28.9886 27.1101 29.1405 27.343C29.2925 27.5766 29.4164 27.7951 29.4164 27.8293C29.4164 27.8634 29.5369 28.0819 29.684 28.3155C29.8319 28.5491 30.7492 30.1266 31.7233 31.821C32.6974 33.5153 33.629 35.1147 33.794 35.3756C33.959 35.6358 34.0938 35.8714 34.0938 35.8987C34.0938 35.926 34.4279 36.5127 34.8359 37.2024C35.2432 37.8922 35.5772 38.5068 35.5772 38.5683C35.5772 38.6304 35.6176 38.6974 35.6662 38.7185C35.7155 38.739 36.1078 39.3707 36.5383 40.1219C37.6884 42.1291 39.0479 44.494 39.3573 45.0274C39.5058 45.2842 40.0897 46.2956 40.6545 47.2749L41.6813 49.056L43.307 49.0567C44.2011 49.0567 44.9328 49.0123 44.9328 48.957C44.9328 48.9023 44.1189 47.4552 43.125 45.7417C41.5266 42.9875 37.6096 36.2231 33.5756 29.2525C30.3111 23.6101 30.5226 24.388 32.0402 23.5965C32.5112 23.3513 33.9008 22.6028 35.1289 21.9329C36.3569 21.2636 37.4207 20.7159 37.4926 20.7159C37.6089 20.7159 38.0868 21.267 40.7455 24.4706C41.1343 24.9398 41.5628 25.452 41.697 25.6091C41.8319 25.7661 43.0031 27.175 44.301 28.7403C45.5989 30.3049 46.7592 31.7008 46.8797 31.8415C47.0905 32.088 47.1699 32.0976 48.9819 32.0976H50.865V22.2054C50.865 10.3825 50.8904 10.6065 49.6555 11.3106ZM48.5835 19.3555C48.5835 21.8366 48.539 23.8027 48.4815 23.8382C48.309 23.9448 47.9612 23.5651 46.8235 22.0326L45.731 20.5609V18.3762C45.731 16.7652 45.7686 16.1601 45.8741 16.0754C46.2512 15.7695 48.2672 14.814 48.4151 14.8707C48.5595 14.926 48.5835 15.5666 48.5835 19.3555ZM113.5 15.245C107.826 16.4176 104.575 22.1302 106.396 27.7302C109.372 36.8828 123.412 36.1849 125.352 26.7878C126.846 19.5454 120.868 13.722 113.5 15.245ZM130.552 15.1118C130.486 15.1576 130.341 15.7073 130.231 16.3336C130.121 16.9598 129.985 17.7021 129.928 17.9842C129.872 18.2656 129.747 18.9314 129.651 19.4634C129.496 20.3294 129.295 21.4364 128.725 24.5854C128.629 25.1174 128.505 25.7832 128.449 26.0653C128.393 26.3473 128.262 27.0637 128.157 27.6585C127.985 28.6392 127.867 29.2825 127.367 31.9842C127.279 32.4534 127.175 33.055 127.133 33.3214L127.057 33.8049H128.707C129.891 33.8049 130.391 33.7646 130.473 33.6628C130.536 33.5843 130.955 31.2671 131.404 28.5122C132.339 22.777 132.346 22.7387 132.507 22.6855C132.679 22.6281 132.416 22.0305 135.584 29.6506C137.554 34.3881 137.365 34.033 137.897 34.033H138.328L140.761 28.4268C142.099 25.3441 143.263 22.7483 143.346 22.6588C143.54 22.4512 143.571 22.5325 143.73 23.675C143.795 24.1449 143.977 25.3994 144.133 26.4634C144.846 31.2931 145.012 32.4199 145.09 32.9546C145.216 33.8322 145.158 33.8049 146.939 33.8049C148.808 33.8049 148.702 33.8991 148.475 32.439C148.206 30.6996 147.856 28.562 147.73 27.8866C147.666 27.5424 147.304 25.3653 146.926 23.0488C145.8 16.1478 145.652 15.316 145.533 15.1671C145.418 15.0244 143.698 14.9581 143.37 15.0838C143.285 15.1166 142.061 17.8053 140.651 21.0587C137.789 27.6619 137.951 27.4175 137.37 26.0072C137.163 25.5073 136.951 24.9951 136.899 24.8701C136.845 24.7452 136.569 24.0793 136.282 23.3902C133.612 16.9523 132.856 15.1835 132.742 15.1118C132.67 15.066 132.174 15.0278 131.641 15.0278C131.107 15.0278 130.617 15.066 130.552 15.1118ZM158.247 16.074C157.994 16.6552 157.366 18.129 156.853 19.35C156.339 20.5704 155.803 21.8257 155.661 22.1384C155.519 22.4512 154.953 23.7829 154.402 25.0976C153.852 26.4122 153.285 27.7439 153.143 28.0574C152.579 29.2962 150.808 33.559 150.808 33.6779C150.808 33.8226 154.202 33.8602 154.41 33.7181C154.478 33.6717 154.562 33.5542 154.598 33.4566C154.634 33.3582 154.982 32.5251 155.371 31.6052L156.079 29.932L159.907 29.962L163.737 29.9921L164.488 31.7575C164.902 32.7286 165.282 33.5863 165.333 33.6642C165.474 33.88 168.948 33.8643 168.948 33.6478C168.948 33.5064 166.97 28.6454 166.43 27.4605C166.309 27.1955 166.21 26.9531 166.21 26.923C166.21 26.8752 163.378 20.0152 161.816 16.2769L161.316 15.0818L160.012 15.0497L158.708 15.0176L158.247 16.074ZM247.67 15.245C243.074 16.1949 240.425 19.6335 240.43 24.6427C240.433 27.7084 241.025 29.2614 242.979 31.3293C245.658 34.1655 250.57 35.071 254.059 33.3719L254.459 33.1773L254.49 31.2719C254.507 30.2236 254.492 29.3659 254.456 29.3659C254.421 29.3659 254.124 29.5653 253.798 29.8084C249.622 32.915 243.92 29.9313 243.907 24.6325C243.894 19.3016 249.744 16.2516 253.819 19.4648C254.135 19.7147 254.422 19.9189 254.455 19.9189C254.595 19.9189 254.515 16.1901 254.373 16.0734C253.317 15.204 249.906 14.7826 247.67 15.245ZM72.9989 24.5307V33.697L74.7383 33.6656L76.4784 33.6341L76.5352 26.0086L76.5928 18.3823L80.329 18.3523L84.0652 18.3222V25.943C84.0652 30.1348 84.1042 33.5877 84.1507 33.6164C84.198 33.6451 84.9811 33.686 85.8908 33.7079L87.5454 33.7475V24.5854V15.4232L80.2721 15.3939L72.9989 15.3645V24.5307ZM91.9901 15.5086C91.96 15.5864 91.949 19.7222 91.9654 24.6994L91.9949 33.7482L93.5762 33.7796C95.6743 33.8219 95.4744 34.1921 95.4744 30.2625V26.9756H96.9858C101.653 26.9756 103.917 25.1167 103.917 21.2848C103.917 18.0498 102.184 16.0092 99.0402 15.5407C97.5177 15.3133 92.0743 15.2887 91.9901 15.5086ZM173.816 15.4417C173.774 15.484 173.739 18.3646 173.738 21.8441C173.737 28.4234 173.716 28.7649 173.243 29.6759C172.794 30.5425 171.969 30.9939 170.932 30.94C170.055 30.8949 170.089 30.8335 170.089 32.4445C170.089 33.9401 170.067 33.9189 171.603 33.9189C174.402 33.9189 176.389 32.3755 176.979 29.7421C177.133 29.0551 177.162 28.0874 177.162 23.7419C177.162 18.7361 177.17 18.5572 177.384 18.4431C177.643 18.3045 182.394 18.2826 182.609 18.4185C182.72 18.4889 182.758 20.2058 182.78 26.1281L182.81 33.7482H184.464H186.119L186.148 24.5574L186.177 15.3659H180.035C176.656 15.3659 173.858 15.4 173.816 15.4417ZM190.678 15.5086C190.648 15.5864 190.637 19.7222 190.653 24.6994L190.682 33.7482L194.676 33.7427C199.203 33.7359 199.606 33.6758 200.965 32.7996C203.387 31.2371 204.003 27.3758 202.217 24.9541C200.932 23.2147 199.461 22.6677 196.028 22.6568C194.458 22.6513 194.176 22.624 194.117 22.4703C194.079 22.3713 194.048 20.7323 194.048 18.8283V15.3659H192.39C191.169 15.3659 190.718 15.4034 190.678 15.5086ZM210.534 15.5379C208.525 15.8596 207.234 16.7201 206.393 18.2977C204.754 21.3722 206.28 25.5353 209.278 26.1725C209.862 26.2968 209.754 26.4914 207.119 30.0522C205.708 31.9596 204.551 33.5843 204.548 33.6628C204.544 33.8219 208.258 33.8739 208.492 33.7181C208.561 33.6717 209.632 32.0976 210.873 30.2195C213.292 26.557 213.244 26.6178 213.672 26.6615L213.956 26.6915L214.014 30.2195L214.071 33.7482H215.725H217.379L217.409 24.5574L217.438 15.3659L214.442 15.3788C212.622 15.387 211.089 15.4492 210.534 15.5379ZM221.938 15.5086C221.909 15.5864 221.897 19.7222 221.913 24.6994L221.943 33.7482H223.597H225.251L225.309 29.7073L225.366 25.6671L229.294 25.6371C232.361 25.6139 233.243 25.6384 233.314 25.7504C233.364 25.8297 233.406 27.6756 233.407 29.8528L233.409 33.811L235.092 33.7796L236.775 33.7482V24.5854V15.4232L235.092 15.3918L233.409 15.3597L233.407 18.8064C233.406 20.7016 233.364 22.3167 233.314 22.3959C233.243 22.5086 232.361 22.5332 229.294 22.5099L225.366 22.4799L225.336 18.9232L225.305 15.3659H223.649C222.429 15.3659 221.979 15.4034 221.938 15.5086ZM43.3351 19.5256L43.3926 21.3483L44.5029 22.8815C45.1135 23.7249 46.2574 25.2854 47.046 26.35C48.541 28.3688 48.6239 28.5211 48.5636 29.15C48.4883 29.9334 48.2378 29.723 45.8843 26.8978C39.284 18.9717 39.757 19.5706 39.9453 19.3828C40.2266 19.1015 42.9203 17.6482 43.1072 17.6762C43.2482 17.6974 43.2886 18.0218 43.3351 19.5256ZM116.686 18.2219C120.573 18.8618 122.801 22.5216 121.763 26.5611C120.179 32.7299 111 32.4404 109.666 26.1793C108.674 21.5224 112.233 17.4877 116.686 18.2219ZM213.987 21.0997L214.018 23.9318L212.732 23.8806C210.31 23.7843 209.345 22.9935 209.339 21.0997C209.332 19.1267 210.572 18.2027 213.158 18.2533L213.956 18.2683L213.987 21.0997ZM97.5123 18.4438C99.4721 18.689 100.408 19.5706 100.408 21.1707C100.408 23.0399 98.9395 24.0855 96.443 23.9933L95.5312 23.9598L95.5011 21.2356C95.4641 17.9535 95.3087 18.1686 97.5123 18.4438ZM160.469 21.4268C160.667 21.9438 161.218 23.3554 161.694 24.5656C162.17 25.775 162.559 26.8377 162.559 26.9271C162.559 27.063 162.133 27.0897 159.935 27.0897C157.777 27.0897 157.311 27.0617 157.311 26.9319C157.311 26.7202 159.67 20.8409 159.833 20.6435C160.046 20.3881 160.095 20.4475 160.469 21.4268ZM197.64 25.7928C200.143 26.4204 200.44 29.6097 198.081 30.5337C197.374 30.8109 194.496 30.9612 194.223 30.7351C194.043 30.5862 193.949 26.2258 194.117 25.79C194.216 25.5346 196.618 25.5367 197.64 25.7928ZM24.7369 34.0029C24.5185 34.3615 24.3179 34.707 24.2919 34.7712C24.2659 34.8347 24.0475 35.2076 23.8073 35.5996C23.5663 35.9923 23.3699 36.3331 23.3699 36.3577C23.3699 36.3816 23.07 36.906 22.7038 37.522C22.3376 38.138 21.8796 38.9241 21.6873 39.2683C21.4942 39.6125 20.9925 40.4832 20.5715 41.2037C19.7993 42.5252 19.7247 42.6536 18.9347 44.0276C18.6938 44.4462 18.2276 45.25 17.8983 45.8135C17.5691 46.3769 17.1823 47.0427 17.0399 47.2927C16.2438 48.6906 14.6625 51.4066 14.5879 51.5043C14.54 51.5671 14.36 51.8744 14.1881 52.1872C14.0156 52.5 13.5467 53.327 13.1456 54.0243C12.7451 54.7222 12.4172 55.3239 12.4172 55.3621C12.4172 55.5295 15.5819 55.4332 15.7249 55.2611C15.8625 55.0958 17.9565 51.5139 19.9177 48.0897C20.4551 47.1506 20.9993 46.2669 21.1253 46.1262L21.3559 45.8701H27.0479C32.555 45.8701 33.1814 45.905 33.1814 46.2137C33.1814 46.2731 33.3867 46.6562 33.6379 47.0653C33.8885 47.4743 34.0938 47.8288 34.0938 47.8534C34.0938 47.8779 34.3991 48.41 34.7715 49.0355C35.1439 49.6618 35.7121 50.6397 36.0338 51.2093L36.6184 52.2439H38.2654C39.1718 52.2439 39.9124 52.2179 39.9124 52.1852C39.9124 52.1531 39.4312 51.2953 38.8425 50.2791C38.2545 49.2622 37.4022 47.7912 36.9491 47.0086C36.4959 46.2259 35.4431 44.4073 34.6107 42.9677C33.7776 41.5281 32.7405 39.7354 32.3058 38.9842C31.8711 38.233 30.9559 36.6575 30.2727 35.4842L29.0303 33.35H27.0821H25.1346L24.7369 34.0029ZM27.8344 37.0208C28.1253 37.5371 28.8058 38.7213 29.3466 39.6528C29.8867 40.5843 30.3289 41.3594 30.3289 41.3751C30.3289 41.3908 30.5075 41.6988 30.7252 42.0594C30.9429 42.4207 31.0942 42.7594 31.0606 42.8134C30.984 42.9363 23.1748 42.9431 23.0988 42.8195C23.0673 42.7697 23.4239 42.071 23.8901 41.2665C24.357 40.4627 24.7389 39.79 24.7389 39.7716C24.7389 39.7388 26.4544 36.8111 26.7515 36.3378C27.039 35.8776 27.2738 36.0258 27.8344 37.0208ZM48.0892 36.1576C48.0475 36.1992 48.0133 39.1187 48.0133 42.6454V49.0574H49.4391H50.865V42.5696V36.0818H49.5151C48.7724 36.0818 48.131 36.1159 48.0892 36.1576ZM74.3372 41.4338C73.4692 41.6524 72.9989 41.9727 72.9989 42.3442C72.9989 42.7574 73.0585 42.7608 73.7191 42.3927C75.557 41.3683 78.2295 42.4965 78.2445 44.3028L78.2466 44.6129L76.1074 44.6443L73.9682 44.675V44.9598V45.2439L76.0739 45.2753C78.3814 45.3095 78.4047 45.317 78.2863 45.9842C77.9447 47.9114 75.7302 48.8381 73.7622 47.8773C72.9962 47.5037 72.9989 47.5037 72.9989 47.9251C72.9989 48.7535 75.7008 49.2377 77.0021 48.6428C79.6958 47.4108 79.6985 42.8386 77.0055 41.6319C76.4305 41.3738 74.9978 41.2672 74.3372 41.4338ZM96.1021 41.4216C92.3248 42.1236 91.819 47.3835 95.3984 48.7405C96.7504 49.2534 99.0114 48.7876 99.0114 47.9968C99.0114 47.5904 98.9532 47.5884 98.1886 47.9667C95.64 49.2267 92.9601 46.887 93.839 44.1703C94.4236 42.3654 96.5074 41.5042 98.1934 42.3708C98.9347 42.7512 99.0114 42.7553 99.0114 42.4159C99.0114 41.7343 97.3932 41.1812 96.1021 41.4216ZM186.103 41.4298C183.168 42.0444 182.055 45.7575 184.171 47.8698C186.56 50.2532 190.74 48.5581 190.74 45.2063C190.74 42.7608 188.491 40.9292 186.103 41.4298ZM83.8372 45.1305V48.8293H84.1631C84.5122 48.8293 84.6327 48.3014 84.6347 46.7668C84.6361 46.0334 84.7559 45.5116 84.914 45.5519C85.0447 45.5847 86.9033 47.5993 87.5556 48.4147C87.8452 48.776 87.9506 48.8293 88.3785 48.8293H88.8693L87.9219 47.7741C85.9819 45.6127 85.4904 45.0418 85.4589 44.912C85.4411 44.8389 86.1475 44.0658 87.0279 43.1951C88.7707 41.4707 88.7988 41.4311 88.2676 41.4311C87.9554 41.4311 87.6891 41.6456 86.3378 42.9807C85.452 43.8562 84.7162 44.4968 84.6464 44.4538C84.5669 44.4046 84.5218 43.8446 84.5218 42.9042V41.4311H84.1795H83.8372V45.1305ZM103.881 41.5049C103.838 41.5479 103.803 43.2136 103.803 45.2063V48.8293H104.143H104.484L104.514 45.5L104.545 42.1707H106.484H108.424L108.454 45.5L108.484 48.8293H108.826H109.169L109.138 45.1585L109.108 41.4878L106.534 41.4578C105.117 41.4407 103.924 41.4619 103.881 41.5049ZM114.414 45.1271V48.8293H116.239H118.064V48.5452V48.2604H116.761C114.963 48.2604 115.098 48.3901 115.098 46.6582V45.194L116.553 45.1619L118.007 45.1305L118.043 44.8205L118.079 44.5111L116.617 44.479L115.155 44.4476V43.3092V42.1707L116.617 42.1393L118.079 42.1072L118.043 41.7979L118.007 41.4878L116.21 41.4564L114.414 41.4257V45.1271ZM122.942 41.4953C122.894 41.5438 122.856 43.2136 122.856 45.2063V48.8293H123.195H123.534L123.566 47.2647L123.597 45.6994L124.515 45.5813C127.822 45.1544 127.425 41.5971 124.054 41.4523C123.489 41.4284 122.989 41.4475 122.942 41.4953ZM130.386 41.7699V42.114H131.229C132.293 42.114 132.212 41.8197 132.212 45.6516V48.8293H132.552H132.893L132.923 45.5L132.953 42.1707L133.844 42.1373L134.735 42.1045L134.7 41.7958L134.664 41.4878L132.525 41.4571L130.386 41.4263V41.7699ZM139.138 41.5021C139.093 41.5465 139.057 43.2136 139.057 45.2063V48.8293H139.396H139.735L139.767 47.0366L139.798 45.2439L141.766 45.2132L143.734 45.1818V47.0059V48.8293H144.078H144.422L144.392 45.1585L144.362 41.4878H144.077H143.791L143.76 42.9991L143.728 44.5098L141.763 44.4783L139.798 44.4476L139.741 42.9677C139.684 41.4789 139.531 41.1088 139.138 41.5021ZM151.9 41.8579C151.551 42.5798 148.868 48.7241 148.868 48.7999C148.868 48.8245 149.033 48.8279 149.234 48.8081C149.575 48.7753 149.628 48.7077 150.016 47.8049L150.434 46.8378H152.132H153.829L154.243 47.8049C154.632 48.7138 154.679 48.7746 155.03 48.8095C155.35 48.8409 155.391 48.817 155.323 48.6387C154.927 47.6034 152.234 41.4311 152.177 41.4311C152.138 41.4311 152.012 41.623 151.9 41.8579ZM160.746 41.6346C158.989 42.3176 159.062 44.8942 160.853 45.4297C161.43 45.6024 161.446 45.5362 160.477 46.9765C160.022 47.6533 159.559 48.3471 159.447 48.5178L159.245 48.8293H159.649C160.041 48.8293 160.081 48.7862 161.106 47.236C162.615 44.9543 162.787 44.955 162.787 47.2428V48.8293H163.131H163.475L163.445 45.1585L163.415 41.4878L162.331 41.4639C161.532 41.4461 161.115 41.4905 160.746 41.6346ZM174.049 41.5021C174.005 41.5465 173.968 43.2136 173.968 45.2063V48.8293H174.299H174.63L174.712 47.2954C174.807 45.5225 174.909 45.3142 175.397 45.8954C175.57 46.1003 176.081 46.678 176.533 47.1793C176.986 47.6799 177.505 48.2597 177.688 48.468C177.975 48.7944 178.082 48.8416 178.464 48.8095L178.907 48.7726L177.167 46.8515L175.426 44.9311L177.093 43.2648C178.919 41.44 178.925 41.4311 178.388 41.4311C178.061 41.4311 177.824 41.6217 176.478 42.9677C174.572 44.8731 174.667 44.8717 174.628 42.9964C174.595 41.4762 174.45 41.1019 174.049 41.5021ZM208.501 41.5049C208.458 41.5479 208.423 43.2136 208.423 45.2063V48.8293H208.764H209.104L209.135 45.5L209.165 42.1707H211.105H213.044L213.074 45.5L213.104 48.8293H213.446H213.789L213.759 45.1585L213.728 41.4878L211.154 41.4578C209.738 41.4407 208.544 41.4619 208.501 41.5049ZM221.389 41.5178C221.36 41.5657 220.9 42.603 220.367 43.8227C219.835 45.0431 219.137 46.6275 218.817 47.3446C218.136 48.8716 218.143 48.8293 218.558 48.8293C218.909 48.8293 218.912 48.8252 219.479 47.546L219.821 46.7743L221.501 46.8058L223.181 46.8378L223.589 47.8336C223.986 48.8047 224.006 48.8293 224.377 48.8293C224.586 48.8293 224.74 48.7835 224.719 48.7275C224.4 47.8698 221.579 41.4345 221.522 41.4332C221.478 41.4318 221.419 41.47 221.389 41.5178ZM229.268 41.5028C229.224 41.5472 229.187 43.2136 229.187 45.2063V48.8293H229.473H229.758L229.76 47.1506C229.762 44.9946 229.565 45.1756 231.877 45.2132L233.808 45.2439L233.84 47.0366L233.871 48.8293H234.212H234.553L234.523 45.1585L234.493 41.4878H234.208H233.922L233.866 42.9677L233.808 44.4476L231.843 44.4783C229.54 44.5152 229.773 44.7064 229.729 42.7417C229.701 41.5144 229.581 41.1907 229.268 41.5028ZM239.765 41.5021C239.656 41.6107 239.661 48.8026 239.77 48.8648C239.816 48.8921 240.907 47.6874 242.194 46.1884C243.48 44.6894 244.618 43.4164 244.721 43.3597C245.02 43.1958 245.046 43.4239 245.046 46.2212V48.8293H245.332H245.616V45.1305C245.616 43.0961 245.599 41.4311 245.576 41.4311C245.553 41.4311 245.105 41.9303 244.579 42.5409C241.675 45.9077 240.678 47.0086 240.534 47.0086C240.4 47.0086 240.367 46.5339 240.342 44.2482C240.313 41.5677 240.305 41.4871 240.078 41.455C239.95 41.4366 239.809 41.4577 239.765 41.5021ZM251.844 41.6333C250.106 42.2411 250.064 44.7727 251.781 45.3812C252.495 45.6338 252.528 45.4932 251.319 47.2961L250.29 48.8293L250.72 48.8224C251.145 48.8149 251.161 48.7978 252.177 47.2312C253.213 45.6325 253.35 45.4829 253.66 45.6011C253.801 45.655 253.831 45.9473 253.831 47.2483V48.8293H254.175H254.519L254.489 45.1585L254.459 41.4878L253.432 41.4625C252.698 41.4441 252.245 41.4933 251.844 41.6333ZM196.292 42.6549C196.19 43.2648 195.974 44.6095 195.813 45.6427C195.652 46.6753 195.471 47.7666 195.412 48.0671C195.261 48.8238 195.262 48.8293 195.635 48.8293C196.011 48.8293 195.964 49.0137 196.447 45.6427C196.655 44.1963 196.8 43.6568 196.935 43.8289C196.987 43.8958 197.454 44.9024 198.352 46.8863C199.366 49.1298 199.348 49.1065 199.619 48.4789C199.858 47.9285 200.395 46.7641 201.204 45.0452C201.492 44.4346 201.794 43.9354 201.875 43.9354C202.049 43.9354 202.103 44.2263 202.496 47.2927C202.694 48.8361 202.691 48.8293 203.072 48.8293C203.394 48.8293 203.41 48.8081 203.354 48.4598C203.111 46.9772 202.925 45.7445 202.648 43.7927C202.472 42.5566 202.286 41.5452 202.233 41.5452C202.147 41.5452 201.911 42.0184 200.874 44.2769C199.849 46.5059 199.473 47.236 199.348 47.236C199.272 47.236 198.938 46.6343 198.606 45.8988C198.274 45.1633 197.815 44.1512 197.585 43.6506C197.355 43.15 197.046 42.4712 196.899 42.1427C196.54 41.3423 196.508 41.3697 196.292 42.6549ZM3.28959 43.7647V45.8701H4.71617H6.14207V43.7647V41.6585H4.71617H3.28959V43.7647ZM187.903 42.1953C188.709 42.4528 189.595 43.3133 189.863 44.0986C190.925 47.2073 187.222 49.6802 184.786 47.4894C182.283 45.2378 184.679 41.1668 187.903 42.1953ZM125.155 42.2752C126.18 42.7027 126.359 43.9935 125.48 44.6183C125.081 44.9018 123.955 45.0472 123.714 44.8471C123.486 44.6586 123.458 42.28 123.683 42.1892C123.974 42.0724 124.78 42.1195 125.155 42.2752ZM162.73 43.5366V44.9024H161.92C160.703 44.9024 160.161 44.4913 160.165 43.5707C160.169 42.6331 160.861 42.0881 161.984 42.138L162.73 42.1707V43.5366ZM253.774 43.5366V44.9024L252.918 44.897C251.887 44.8901 251.499 44.6853 251.307 44.0474C250.952 42.8673 251.674 42.0983 253.089 42.1475L253.774 42.1707V43.5366ZM152.876 44.5384C153.555 46.1597 153.585 46.0976 152.12 46.0976C150.653 46.0976 150.685 46.1693 151.404 44.5104C152.135 42.8216 152.158 42.8222 152.876 44.5384ZM222.208 44.5214C222.909 46.185 222.949 46.0976 221.486 46.0976C220.017 46.0976 220.044 46.1556 220.753 44.507C221.478 42.8216 221.491 42.8216 222.208 44.5214ZM0.0332418 49.4275C0.00243753 49.5081 -0.00920008 50.8787 0.00791339 52.474L0.0380335 55.3744L4.68948 55.4038L9.34023 55.4338L9.31011 52.388L9.27931 49.3415L4.684 49.3121C1.03678 49.2882 0.0777368 49.3121 0.0332418 49.4275ZM44.8185 53.9512V55.4311H49.4391H54.0598V53.9512V52.472H49.4391H44.8185V53.9512Z" fill="#E4B84D"/>
</svg>
