<svg width="68" height="35" viewBox="0 0 68 35" fill="none" xmlns="http://www.w3.org/2000/svg">
   <style>
    path {
      fill: black;
    }
    @media (prefers-color-scheme: dark) {
      path {
        fill: white;
      }
    }
  </style>
  <path
    d="M0.735962 0.400024H17.296C21.04 0.400024 24.336 1.08803 27.184 2.46403C30.064 3.80803 32.288 5.74403 33.856 8.27203C35.456 10.8 36.256 13.776 36.256 17.2C36.256 20.624 35.456 23.6 33.856 26.128C32.288 28.656 30.064 30.608 27.184 31.984C24.336 33.328 21.04 34 17.296 34H0.735962V0.400024ZM16.816 25.168C19.248 25.168 21.184 24.48 22.624 23.104C24.096 21.696 24.832 19.728 24.832 17.2C24.832 14.672 24.096 12.72 22.624 11.344C21.184 9.93602 19.248 9.23203 16.816 9.23203H12.064V25.168H16.816Z"
  />
  <path
    d="M44.0147 34.48C42.1907 34.48 40.6707 33.904 39.4547 32.752C38.2707 31.568 37.6787 30.064 37.6787 28.24C37.6787 26.416 38.2707 24.944 39.4547 23.824C40.6707 22.672 42.1907 22.096 44.0147 22.096C45.8387 22.096 47.3427 22.672 48.5267 23.824C49.7427 24.944 50.3507 26.416 50.3507 28.24C50.3507 30.064 49.7427 31.568 48.5267 32.752C47.3427 33.904 45.8387 34.48 44.0147 34.48Z"
  />
  <path
    d="M67.6873 0.400024V34H56.3593V8.94403H50.5993V0.400024H67.6873Z"
  />
</svg>
