<?xml version="1.0" standalone="no"?>
<!DOCTYPE svg PUBLIC "-//W3C//DTD SVG 20010904//EN"
 "http://www.w3.org/TR/2001/REC-SVG-20010904/DTD/svg10.dtd">
<svg version="1.0" xmlns="http://www.w3.org/2000/svg"
 width="1088.000000pt" height="1088.000000pt" viewBox="0 0 1088.000000 1088.000000"
 preserveAspectRatio="xMidYMid meet">
<metadata>
Created by potrace 1.11, written by Peter Selinger 2001-2013
</metadata>
<g transform="translate(0.000000,1088.000000) scale(0.100000,-0.100000)"
fill="#000000" stroke="none">
<path d="M119 8165 c0 -5 -1 -1214 -2 -2685 l0 -2675 37 -2 c20 0 42 -3 50 -6
7 -3 18 -2 25 3 7 4 28 4 46 0 18 -4 39 -4 45 0 7 4 26 4 41 0 16 -5 31 -5 34
0 3 5 18 5 33 2 15 -4 41 -6 57 -5 17 2 51 3 78 3 26 0 54 0 62 0 8 0 22 0 30
0 8 0 36 0 63 0 26 0 58 1 72 3 14 2 37 0 52 -4 15 -4 30 -4 33 1 3 5 18 5 34
0 16 -4 31 -6 34 -4 2 2 33 4 68 4 35 0 73 0 84 0 11 0 31 0 45 -1 14 0 32 0
40 0 8 1 29 1 45 0 17 -1 42 -1 58 0 15 0 50 1 77 1 28 0 58 0 68 0 9 0 28 0
42 -1 31 -1 66 -1 103 0 15 1 39 1 55 2 34 1 70 1 105 0 15 -1 39 -1 55 -2 15
0 41 -1 57 0 146 2 196 2 203 -3 4 -2 14 -1 21 4 8 4 26 4 41 0 15 -4 33 -4
40 0 6 4 27 4 45 0 18 -4 39 -4 45 0 7 4 26 4 41 0 16 -5 31 -5 34 0 3 5 18 5
33 2 15 -4 41 -6 57 -5 17 2 51 3 78 3 26 0 54 0 62 0 8 0 22 0 30 0 8 0 38 0
65 0 66 1 106 1 155 1 22 0 46 0 53 0 30 -2 42 -1 134 3 134 7 218 15 357 32
58 7 271 43 293 50 10 3 30 7 45 10 60 11 290 74 333 91 8 4 17 7 20 7 10 2
106 38 180 68 200 80 521 264 630 360 8 7 37 31 65 52 27 22 79 67 114 100 55
53 83 82 161 166 35 37 130 160 170 220 24 36 46 67 50 70 4 3 9 12 13 20 4 8
18 33 32 55 27 43 149 283 158 312 4 10 16 43 27 73 50 131 105 334 125 460 4
25 9 53 11 63 13 71 26 238 28 347 0 71 4 130 7 130 3 0 4 15 2 33 -1 17 -5
79 -8 137 -7 149 -19 256 -37 350 -25 136 -51 246 -60 258 -6 6 -8 12 -5 12 3
0 1 15 -4 33 -6 17 -12 39 -14 47 -2 8 -9 29 -16 45 -6 17 -13 36 -15 43 -8
43 -122 290 -178 387 -38 68 -93 153 -108 169 -10 11 -18 26 -18 33 0 7 -4 13
-9 13 -5 0 -20 17 -32 38 -13 20 -26 39 -29 42 -3 3 -28 32 -55 65 -160 192
-357 358 -620 522 -41 26 -310 163 -320 163 -2 0 -30 12 -62 26 -89 40 -92 41
-193 75 -52 17 -102 34 -110 37 -8 3 -19 6 -25 8 -5 1 -44 11 -85 22 -41 12
-86 23 -100 26 -14 3 -36 8 -50 11 -14 3 -47 10 -75 15 -27 6 -61 12 -75 15
-56 12 -190 29 -305 41 -38 4 -86 8 -105 11 -19 2 -695 5 -1502 6 -1015 2
-1468 0 -1469 -8z m2721 -1409 c117 -9 235 -31 300 -54 8 -3 21 -6 29 -8 47
-9 242 -101 249 -116 2 -5 8 -8 14 -8 31 0 318 -262 318 -291 0 -5 8 -18 17
-28 74 -87 169 -341 188 -506 3 -27 8 -66 11 -85 7 -45 7 -306 0 -345 -2 -16
-7 -52 -11 -80 -3 -27 -11 -70 -17 -95 -5 -25 -12 -58 -15 -75 -3 -16 -10 -36
-15 -42 -6 -7 -8 -13 -5 -13 4 0 -2 -20 -13 -44 -10 -24 -16 -46 -14 -49 2 -2
-2 -10 -11 -17 -8 -7 -15 -19 -15 -27 0 -8 -19 -47 -42 -86 -102 -177 -249
-320 -428 -416 -69 -36 -164 -78 -200 -87 -8 -2 -48 -12 -88 -23 -40 -10 -76
-20 -80 -20 -4 -1 -20 -3 -37 -6 -79 -15 -141 -17 -577 -19 l-468 -3 0 1276 0
1276 412 -1 c227 -1 451 -4 498 -8z"/>
<path d="M8099 8170 c-4 -15 -4 -1337 -1 -1347 3 -10 104 -13 461 -13 l458 0
1 -1987 c0 -1094 1 -1996 1 -2005 1 -12 9 -18 24 -17 12 0 52 -1 88 -2 37 -1
72 2 79 6 7 5 11 4 7 -1 -5 -9 141 -9 191 -1 12 3 22 1 22 -2 0 -8 87 -4 101
5 7 4 10 3 7 -2 -6 -9 379 -10 388 -1 3 3 19 1 35 -3 17 -5 31 -5 35 1 3 5 10
7 15 3 6 -3 34 -5 62 -5 82 2 107 2 178 0 37 -1 72 2 79 6 7 5 11 4 7 -1 -3
-5 24 -7 64 -4 38 3 69 2 69 -3 0 -4 8 -3 19 2 10 6 21 8 24 5 5 -5 204 -6
252 -2 6 0 15 -1 20 -2 6 -1 18 -2 28 -1 16 1 17 136 17 2689 l0 2687 -1365 0
c-751 0 -1366 -2 -1366 -5z"/>
<path d="M6977 4704 c-1 -1 -35 -5 -75 -8 -40 -4 -84 -11 -97 -16 -12 -5 -25
-7 -27 -5 -13 14 -308 -108 -308 -126 0 -5 -6 -9 -12 -9 -31 0 -199 -159 -258
-242 -68 -96 -127 -230 -145 -330 -3 -13 -9 -45 -14 -72 -10 -54 -8 -313 2
-361 4 -16 9 -45 13 -63 15 -91 74 -231 136 -325 129 -192 353 -345 578 -394
273 -59 582 -22 790 95 122 69 253 189 329 301 34 49 123 223 120 234 -1 1 4
20 9 42 43 161 48 380 12 538 -21 96 -85 256 -111 277 -3 3 -8 10 -10 16 -17
49 -187 219 -281 282 -71 48 -218 116 -268 125 -14 3 -43 10 -65 16 -61 16
-305 36 -318 25z"/>
</g>
</svg>
