<svg width="206" height="68" viewBox="0 0 206 68" fill="none" xmlns="http://www.w3.org/2000/svg">
<g clip-path="url(#clip0_explabs)">
<g filter="url(#filter0_explabs)">
<path fill-rule="evenodd" clip-rule="evenodd" d="M34.2192 60.7485C49.1167 60.7485 61.2362 49.0527 61.6007 34.4891C61.61 34.1174 61.3027 33.8138 60.9248 33.8138H55.4466C55.0686 33.8138 54.7634 34.1168 54.751 34.4885C54.3891 45.3328 45.3354 54.0148 34.2198 54.0148C33.2523 54.0148 32.3004 53.949 31.3685 53.8218C31.0374 53.7766 30.7961 53.4946 30.7961 53.1656V44.5877C30.7961 44.2158 30.4896 43.9143 30.1117 43.9143H24.633C24.255 43.9143 23.9486 44.2158 23.9486 44.5877V51.312C23.9486 51.3121 23.9484 51.3122 23.9483 51.3121C23.9482 51.3121 23.948 51.3122 23.948 51.3123V58.3367C23.948 58.611 24.1169 58.8587 24.3772 58.9573C27.4316 60.1142 30.7502 60.7485 34.2192 60.7485ZM6.83773 33.1385C6.82842 33.5103 7.13571 33.8138 7.5137 33.8138H12.993C13.3709 33.8138 13.6762 33.5109 13.6886 33.1392C14.0504 22.2948 23.1041 13.6128 34.2198 13.6128C35.1873 13.6128 36.1391 13.6786 37.0711 13.8058C37.4022 13.8511 37.6436 14.1331 37.6436 14.462V23.04C37.6436 23.4119 37.95 23.7133 38.3279 23.7133H43.8066C44.1846 23.7133 44.491 23.4119 44.491 23.04V9.29122C44.491 9.01682 44.3221 8.76916 44.0619 8.67057C41.0072 7.51346 37.6885 6.87915 34.2192 6.87915C19.3218 6.87915 7.20217 18.5749 6.83773 33.1385ZM34.905 50.6347C34.5273 50.6494 34.2198 50.3465 34.2198 49.9746V44.5877C34.2198 44.2158 34.5271 43.9167 34.9043 43.8922C40.0315 43.5605 44.131 39.5292 44.4685 34.4873C44.4934 34.1162 44.7974 33.8138 45.1754 33.8138H50.6541C51.0321 33.8138 51.3399 34.1163 51.325 34.4879C50.9742 43.2492 43.8143 50.2899 34.905 50.6347ZM17.7854 33.8138C17.4074 33.8138 17.0996 33.5113 17.1145 33.1397C17.4653 24.3785 24.6252 17.3377 33.5346 16.9929C33.9123 16.9782 34.2197 17.2811 34.2197 17.653V23.04C34.2197 23.4119 33.9124 23.711 33.5352 23.7354C28.4081 24.0672 24.3085 28.0985 23.971 33.1403C23.9461 33.5114 23.6421 33.8138 23.2641 33.8138H17.7854ZM34.2197 40.5475C38.0015 40.5475 41.0672 37.5328 41.0672 33.8138C41.0672 30.0949 38.0015 27.0802 34.2197 27.0802C30.438 27.0802 27.3722 30.0949 27.3722 33.8138C27.3722 37.5328 30.438 40.5475 34.2197 40.5475ZM59.2199 22.7943C59.4188 23.23 59.0885 23.7133 58.6031 23.7133H48.5991C48.2211 23.7133 47.9147 23.4119 47.9147 23.04V11.6497C47.9147 11.1311 48.4841 10.8097 48.9285 11.0885C53.4193 13.9052 57.0193 17.9738 59.2199 22.7943ZM20.5248 55.978C20.5248 56.4965 19.9554 56.8179 19.511 56.5392C15.0201 53.7225 11.4201 49.6538 9.21953 44.8333C9.02065 44.3977 9.35093 43.9143 9.83636 43.9143H19.8404C20.2184 43.9143 20.5248 44.2158 20.5248 44.5877V55.978Z" fill="url(#paint0_explabs)"/>
</g>
<path d="M78.6311 45.7027C76.9489 45.7027 75.4775 45.335 74.2162 44.5995C72.9542 43.864 72.3239 42.3585 72.3239 40.0831V25.8443C72.3239 23.7757 72.896 22.2933 74.041 21.3969C75.2085 20.4775 76.6102 20.0178 78.2458 20.0178C81.8197 20.0178 85.5571 20.1672 89.4588 20.466V24.7411H79.7871C78.2691 24.7411 77.5094 25.4421 77.5094 26.8441V30.5331L87.7766 30.8089V34.8427L77.5094 35.1185V38.6351C77.5094 40.152 78.2342 40.9105 79.6824 40.9105H89.4588V45.1856C86.3517 45.5303 82.7423 45.7027 78.6311 45.7027ZM103.288 36.5665L109.666 45.5303H104.41L100.275 39.7038L96.5607 45.5303H91.3046L97.6817 36.0149L91.3046 27.0165H96.5258L100.695 32.8775L104.41 27.0165H109.666L103.288 36.5665ZM111.944 27.0165H116.289L117.13 28.7748C118.882 27.4187 120.622 26.7407 122.351 26.7407C124.617 26.7407 126.287 27.5681 127.361 29.223C128.46 30.8779 129.009 33.2338 129.009 36.2907C129.009 39.4625 128.506 41.8414 127.502 43.4273C126.521 44.9902 124.804 45.7717 122.351 45.7717C121.463 45.7717 120.552 45.6682 119.618 45.4614C118.707 45.2545 117.877 44.9557 117.13 44.565V53.7012H111.944V27.0165ZM120.669 41.5655C121.627 41.5655 122.386 41.1863 122.946 40.4278C123.531 39.6464 123.822 38.2673 123.822 36.2907C123.822 34.314 123.543 32.912 122.981 32.0845C122.421 31.2571 121.65 30.8434 120.669 30.8434C119.501 30.8434 118.321 31.1882 117.13 31.8777V40.6692C117.574 40.945 118.111 41.1633 118.742 41.3242C119.396 41.4851 120.039 41.5655 120.669 41.5655ZM138.328 45.5303C136.693 45.5303 135.419 45.1511 134.508 44.3926C133.598 43.6112 133.142 42.2896 133.142 40.4278V20.1557H135.945V40.0486C135.945 41.1748 136.214 41.9563 136.751 42.393C137.288 42.8067 138.013 43.0136 138.923 43.0136H148.174V45.5303H138.328ZM155.401 45.7372C153.999 45.7372 152.854 45.3235 151.966 44.496C151.102 43.6686 150.67 42.5424 150.67 41.1174V39.8073C150.67 38.3133 151.161 37.1296 152.142 36.2562C153.146 35.3828 154.606 34.9461 156.522 34.9461H162.865V32.6706C162.865 31.4295 162.514 30.5101 161.813 29.9125C161.136 29.3149 159.875 29.0161 158.029 29.0161H152.212V27.3958C154.408 27.028 156.685 26.8441 159.045 26.8441C161.311 26.8441 162.969 27.3038 164.021 28.2232C165.095 29.1196 165.632 30.5561 165.632 32.5327V45.5303H163.495L162.969 43.4273C162.806 43.5652 162.292 43.8295 161.427 44.2202C160.587 44.611 159.617 44.9672 158.519 45.289C157.422 45.5878 156.382 45.7372 155.401 45.7372ZM156.627 43.7031C157.258 43.7031 158.029 43.5881 158.94 43.3583C159.851 43.1285 160.668 42.8872 161.392 42.6343C162.14 42.3815 162.631 42.2091 162.865 42.1172V36.3251L157.153 36.5665C155.868 36.6125 154.922 36.9228 154.315 37.4973C153.73 38.0719 153.439 38.8534 153.439 39.8417V40.6692C153.439 41.7264 153.742 42.4964 154.349 42.9791C154.98 43.4617 155.739 43.7031 156.627 43.7031ZM179.857 45.7372C177.707 45.7372 175.628 45.0477 173.619 43.6686L173.093 45.5303H170.851V19.2249H173.619V28.8093C174.6 28.2577 175.64 27.798 176.738 27.4302C177.859 27.0625 178.863 26.8786 179.751 26.8786C182.04 26.8786 183.723 27.6141 184.797 29.0851C185.895 30.5561 186.444 33.0154 186.444 36.463C186.444 42.6458 184.248 45.7372 179.857 45.7372ZM178.981 43.4618C180.522 43.4618 181.69 42.8757 182.485 41.7035C183.278 40.5083 183.675 38.727 183.675 36.3596C183.675 34.4289 183.477 32.9465 183.08 31.9122C182.706 30.8549 182.181 30.1309 181.503 29.7401C180.826 29.3494 179.984 29.1541 178.981 29.1541C177.999 29.1541 177.1 29.2804 176.282 29.5333C175.465 29.7861 174.576 30.1768 173.619 30.7055V41.9793C174.483 42.439 175.336 42.8067 176.177 43.0825C177.042 43.3354 177.976 43.4618 178.981 43.4618ZM197.556 45.7372C196.505 45.7372 195.185 45.6912 193.596 45.5993C192.008 45.5074 190.922 45.3924 190.338 45.2545V43.5997H198.012C199.32 43.5997 200.278 43.4273 200.885 43.0825C201.492 42.7377 201.796 42.0137 201.796 40.9105V40.0831C201.796 38.3592 200.663 37.4973 198.397 37.4973H195.769C193.971 37.4973 192.581 37.1526 191.599 36.463C190.642 35.7735 190.163 34.6013 190.163 32.9465V31.9811C190.163 30.2343 190.677 28.9587 191.705 28.1542C192.756 27.3498 194.437 26.9476 196.75 26.9476C197.755 26.9476 198.934 27.005 200.29 27.1199C201.667 27.2119 202.742 27.3268 203.513 27.4647V29.1196H196.295C195.033 29.1196 194.099 29.3264 193.492 29.7401C192.884 30.1539 192.581 30.9008 192.581 31.9811V32.7396C192.581 33.7279 192.872 34.3945 193.457 34.7392C194.064 35.061 194.986 35.2219 196.224 35.2219H198.888C200.593 35.2219 201.913 35.6126 202.847 36.3941C203.782 37.1755 204.249 38.3018 204.249 39.7728V41.0484C204.249 42.7952 203.677 44.0134 202.532 44.7029C201.387 45.3924 199.728 45.7372 197.556 45.7372Z" fill="url(#paint1_explabs)"/>
</g>
<defs>
<filter id="filter0_explabs" x="-113.162" y="-88.1208" width="294.763" height="293.869" filterUnits="userSpaceOnUse" color-interpolation-filters="sRGB">
<feFlood flood-opacity="0" result="BackgroundImageFix"/>
<feColorMatrix in="SourceAlpha" type="matrix" values="0 0 0 0 0 0 0 0 0 0 0 0 0 0 0 0 0 0 127 0"/>
<feOffset dy="25"/>
<feGaussianBlur stdDeviation="60"/>
<feColorMatrix type="matrix" values="0 0 0 0 0 0 0 0 0 0 0 0 0 0 0 0 0 0 0.15 0"/>
<feBlend mode="normal" in2="BackgroundImageFix" result="effect1_dropShadow"/>
<feBlend mode="normal" in="SourceGraphic" in2="effect1_dropShadow" result="shape"/>
</filter>
<linearGradient id="paint0_explabs" x1="6.84382" y1="6.87915" x2="60.7061" y2="61.6228" gradientUnits="userSpaceOnUse">
<stop stop-color="#FDFBFB"/>
<stop offset="1" stop-color="#EBEDEE"/>
</linearGradient>
<linearGradient id="paint1_explabs" x1="138.103" y1="10.9866" x2="138.103" y2="56.8429" gradientUnits="userSpaceOnUse">
<stop stop-color="#FDFBFB"/>
<stop offset="1" stop-color="#EBEDEE"/>
</linearGradient>
<clipPath id="clip0_explabs">
<rect y="0.482178" width="206" height="67" fill="white"/>
</clipPath>
</defs>
</svg>
