<svg width="145" height="78" viewBox="0 0 145 78" fill="none" xmlns="http://www.w3.org/2000/svg">
<mask id="mask0" mask-type="alpha" maskUnits="userSpaceOnUse" x="0" y="0" width="140" height="78">
<path d="M0.0239675 0.0126953H139.298V77.9997H0.0239675V0.0126953Z" fill="white"/>
</mask>
<g mask="url(#mask0)">
<path d="M67.1785 0.896728L24.0569 53.9295C22.533 55.8304 23.7539 57.7616 26.7249 57.7616C26.7249 57.7616 41.0524 57.7631 41.6773 57.7631C42.1616 57.7631 42.3574 57.467 42.4734 57.3268L59.7429 36.5023C60.0459 36.1325 60.5955 36.3853 60.4548 36.8836L57.2329 48.3381C56.2643 51.7137 56.8356 57.7631 64.5293 57.7631L82.4426 57.7645C82.9255 57.7645 83.1212 57.4698 83.2387 57.3283L91.4848 47.3847C91.6603 47.1478 92.0982 47.2721 91.9778 47.6592L90.8686 51.2501C90.4118 52.6454 90.1871 57.7616 96.0944 57.7616L111.327 57.7602C113.935 57.7602 115.395 55.6065 113.636 53.4427L90.4075 24.8456C90.0595 24.4166 89.5505 24.4354 89.2098 24.8456C89.2098 24.8456 78.0172 38.3382 77.1501 39.3854C76.6905 39.9415 76.1264 39.5212 76.2903 38.9333L80.6722 23.3391C81.7713 19.4347 81.1159 13.0012 77.1023 8.29084L70.7919 0.896728C69.7914 -0.267494 68.15 -0.296383 67.1785 0.896728ZM17.8828 62.1238L11.1693 72.2797L9.87595 62.1238H5.99575C5.8986 62.2726 -2.6226e-06 77.7267 -2.6226e-06 77.7267H4.06725L7.31815 68.2252C7.31815 68.2252 8.729 76.5885 8.73625 76.6289C8.8653 77.3309 9.3032 77.7917 10.1137 77.7874C10.9417 77.7831 11.5318 77.058 11.7 76.8268L17.4928 68.27L15.8006 77.7267L19.4372 77.7325L21.8428 62.1282L17.8828 62.1238ZM8.73625 76.6289C8.72755 76.5885 8.7203 76.5437 8.7116 76.5004C8.7174 76.5437 8.7261 76.5856 8.73625 76.6289ZM11.149 77.4422C11.194 77.4046 11.236 77.3642 11.2766 77.3223C11.236 77.3656 11.194 77.4046 11.149 77.4422ZM125.873 65.267L126.327 62.1325H117.698C116.499 62.1325 115.432 62.9934 115.276 64.0912L114.921 66.6363V66.6276L113.644 75.7666C113.644 75.7666 113.287 77.7628 115.566 77.7571H124.15L124.558 74.6183H117.367L117.807 71.5214H124.556L124.99 68.3653H118.24L118.677 65.2655H125.873V65.267ZM40.6014 74.4348L42.3429 62.1267H38.628L36.7227 75.7652C36.7227 75.7652 36.366 77.7614 38.6468 77.7556L38.6454 77.7542C38.6483 77.7542 38.6526 77.7556 38.657 77.7556H46.3086L46.732 74.4334H40.6014V74.4348ZM139.299 67.152C139.299 69.1005 138.278 70.7573 136.555 71.6182L139.145 77.7571H134.891L132.888 72.4169H130.503L129.747 77.7571H126.179L128.094 64.0941C128.247 62.992 129.317 62.1325 130.51 62.1325H133.961C137.008 62.1325 139.299 64.2876 139.299 67.152ZM135.714 67.2906C135.694 66.1683 134.85 65.2857 133.78 65.2857H131.496L130.934 69.2623H133.8C134.853 69.2623 135.694 68.3942 135.714 67.2906ZM110.67 62.1282L106.748 71.1054L105.58 63.4888C105.429 62.5297 104.545 61.9664 103.55 61.9664C102.553 61.9664 101.797 62.5456 101.445 63.4368L98.1302 71.1068L96.7222 62.1296H92.8623L95.2896 76.4917C95.4375 77.3613 96.2234 77.929 97.3138 77.929C98.2984 77.929 99.0988 77.4118 99.4903 76.5307L102.776 68.8954L103.904 76.4802C104.049 77.3728 104.838 77.9376 105.96 77.9376C106.924 77.9376 107.677 77.4046 108.1 76.5336L114.575 62.1282H110.67ZM85.0454 61.9057C89.2533 61.9057 92.5491 65.4345 92.5491 69.9412C92.5491 74.4608 89.2547 77.9983 85.0454 77.9983C80.8259 77.9983 77.5257 74.4608 77.5257 69.9412C77.5271 65.436 80.8259 61.9057 85.0454 61.9057ZM85.0454 65.2482C82.7515 65.2482 81.0071 67.2646 80.9868 69.9426C81.0071 72.6206 82.7428 74.64 85.028 74.64C87.3422 74.64 89.0865 72.6206 89.0865 69.9426C89.0865 67.3123 87.3088 65.2482 85.0454 65.2482ZM70.8977 62.1282C74.0312 62.1282 76.5846 64.5909 76.5846 67.6214C76.5846 70.6403 74.0312 73.0901 70.8977 73.0901H67.9455L67.3162 77.7571H63.684L65.5951 64.0941C65.7575 62.992 66.816 62.1282 68.018 62.1282H70.8977V62.1282ZM73.0379 67.6171C73.0205 66.3113 72.0142 65.2857 70.7571 65.2857H69.0388L68.3965 69.9325H70.7571C72.0157 69.9325 73.0205 68.9142 73.0379 67.6171ZM58.0449 77.7571H61.7337L63.9087 62.1325H60.2185L58.0449 77.7571ZM58.6597 62.1282H46.558L46.0824 65.4547H50.2802L48.5764 77.7585H52.2899L53.9922 65.4547H58.2073L58.6597 62.1282ZM31.3707 71.8753C31.0981 73.7877 30.0469 74.6573 28.5026 74.6573C26.925 74.6573 26.0971 73.7415 26.0811 72.4068C26.0811 72.2566 26.0811 72.0847 26.1174 71.9229L27.5036 62.1282H23.7901L22.4155 72.1353C22.3706 72.4112 22.3532 72.6683 22.3532 72.9153C22.3532 75.9125 24.6906 77.9911 28.4461 77.9911C32.0508 77.9911 34.523 75.992 35.0595 72.1887L36.4631 62.1282H32.7497L31.3707 71.8753ZM91.9648 47.4656V47.4685V47.4656Z" fill="currentColor"/>
</g>
</svg>
